G04*
G04 #@! TF.GenerationSoftware,Altium Limited,Altium Designer,18.0.12 (696)*
G04*
G04 Layer_Color=16711935*
%FSLAX44Y44*%
%MOMM*%
G71*
G01*
G75*
%ADD10C,0.1000*%
%ADD11C,0.0000*%
%ADD14C,0.1524*%
%ADD15C,0.1270*%
%ADD72C,0.0254*%
%ADD107C,0.0500*%
G36*
X705696Y285830D02*
Y279142D01*
X700810D01*
Y285830D01*
X705696D01*
D02*
G37*
G36*
X700810Y327122D02*
Y306830D01*
X705765D01*
Y327122D01*
X700810D01*
D02*
G37*
D10*
X648750Y358110D02*
X684750D01*
Y312110D02*
Y358110D01*
X648750Y312110D02*
X684750D01*
X648750D02*
Y358110D01*
X554990Y588550D02*
Y592550D01*
X552990Y590550D02*
X556990D01*
X659350Y515640D02*
Y645640D01*
X494350Y515640D02*
Y645640D01*
Y515640D02*
X659350D01*
X494350Y645640D02*
X659350D01*
D11*
X595122Y422656D02*
G03*
X601218Y422656I3048J0D01*
G01*
D14*
X813755Y538891D02*
G03*
X813755Y544987I0J3048D01*
G01*
X844743Y526446D02*
Y557434D01*
X813755D02*
X844743D01*
X813755Y544987D02*
Y557434D01*
Y538891D02*
Y544987D01*
Y526446D02*
Y538891D01*
Y526446D02*
X844743D01*
X583184Y392684D02*
X613156D01*
Y422656D01*
X601218D02*
X613156D01*
X595122D02*
X601218D01*
X583184D02*
X595122D01*
X583184Y392684D02*
Y422656D01*
D15*
X696060Y306830D02*
X708560D01*
X696060Y289830D02*
X708560D01*
X744270Y402588D02*
Y482588D01*
Y402588D02*
X782270D01*
Y482588D01*
X744270D02*
X782270D01*
X753028Y576590D02*
Y664090D01*
X730527D02*
X753028D01*
X730527D02*
Y679090D01*
X685527D02*
X730527D01*
X685527Y664090D02*
Y679090D01*
X663027Y664090D02*
X685527D01*
X663027Y576590D02*
Y664090D01*
Y576590D02*
X753028D01*
X571820Y444900D02*
X611820D01*
Y494900D01*
X571820D02*
X611820D01*
X571820Y444900D02*
Y494900D01*
X635582Y438550D02*
X659583D01*
X635582D02*
Y488550D01*
X659583D01*
Y438550D02*
Y488550D01*
X639582Y477050D02*
X655583D01*
X639582Y450050D02*
X655583D01*
D72*
X769420Y216850D02*
Y271850D01*
X509420D02*
X769420D01*
X509420Y216850D02*
Y271850D01*
Y216850D02*
X769420D01*
X477510Y267460D02*
X478510Y266460D01*
X477510Y267460D02*
Y465460D01*
X348510Y266460D02*
X478510D01*
X348510D02*
Y465460D01*
X348210Y465360D02*
X477210D01*
X530272Y287110D02*
X531772Y288610D01*
Y302810D01*
X530072Y304510D02*
X531772Y302810D01*
X495572Y288710D02*
Y303110D01*
X496972Y304510D02*
X530072D01*
X495572Y303110D02*
X496972Y304510D01*
X495572Y288710D02*
X497172Y287110D01*
X530272D01*
X564582Y308098D02*
X566082Y306598D01*
X580282D01*
X581982Y308298D01*
X566182Y342798D02*
X580582D01*
X581982Y308298D02*
Y341398D01*
X580582Y342798D02*
X581982Y341398D01*
X564582Y341198D02*
X566182Y342798D01*
X564582Y308098D02*
Y341198D01*
X745000Y515450D02*
Y569450D01*
Y515450D02*
X799000D01*
Y569450D01*
X745000D02*
X799000D01*
X777000Y552450D02*
X777000D01*
X761890Y688600D02*
X865890D01*
X761890Y632700D02*
Y688600D01*
X865890Y630500D02*
Y688600D01*
X764090Y630500D02*
X865890D01*
X762090D02*
X764090D01*
X761890Y630700D02*
X762090Y630500D01*
X761890Y630700D02*
Y632700D01*
D107*
X735270Y400088D02*
Y485088D01*
Y400088D02*
X791270D01*
Y485088D01*
X735270D02*
X791270D01*
X644750Y308110D02*
Y362110D01*
Y308110D02*
X688750D01*
Y362110D01*
X644750D02*
X688750D01*
X569320Y494400D02*
Y497400D01*
X554720Y494400D02*
X569320D01*
X554720Y445400D02*
Y494400D01*
Y445400D02*
X569320D01*
Y442400D02*
Y445400D01*
Y442400D02*
X614320D01*
Y445400D01*
X628920D01*
Y494400D01*
X614320D02*
X628920D01*
X614320D02*
Y497400D01*
X569320D02*
X614320D01*
M02*
