G04*
G04 #@! TF.GenerationSoftware,Altium Limited,Altium Designer,18.0.12 (696)*
G04*
G04 Layer_Color=32768*
%FSLAX44Y44*%
%MOMM*%
G71*
G01*
G75*
%ADD10C,0.1000*%
%ADD14C,0.1524*%
D10*
X477100Y559620D02*
X488100D01*
X477100Y583620D02*
X488100D01*
X477100Y559620D02*
Y583620D01*
X488100Y559620D02*
Y583620D01*
X482600Y566870D02*
Y576370D01*
X477850Y571620D02*
X487350D01*
X523570Y381000D02*
X533070D01*
X528320Y376250D02*
Y385750D01*
X522820Y369000D02*
Y393000D01*
X533820Y369000D02*
Y393000D01*
X522820D02*
X533820D01*
X522820Y369000D02*
X533820D01*
X571500Y275920D02*
Y285420D01*
X566750Y280670D02*
X576250D01*
X559500Y275170D02*
X583500D01*
X559500Y286170D02*
X583500D01*
X559500Y275170D02*
Y286170D01*
X583500Y275170D02*
Y286170D01*
X632040Y276290D02*
X643040D01*
X632040Y300290D02*
X643040D01*
Y276290D02*
Y300290D01*
X632040Y276290D02*
Y300290D01*
X637540Y283540D02*
Y293040D01*
X632790Y288290D02*
X642290D01*
X692150Y421970D02*
Y431470D01*
X687400Y426720D02*
X696900D01*
X680150Y421220D02*
X704150D01*
X680150Y432220D02*
X704150D01*
X680150Y421220D02*
Y432220D01*
X704150Y421220D02*
Y432220D01*
X770890Y490550D02*
Y500050D01*
X766140Y495300D02*
X775640D01*
X758890Y500800D02*
X782890D01*
X758890Y489800D02*
X782890D01*
Y500800D01*
X758890Y489800D02*
Y500800D01*
X742010Y500380D02*
X751510D01*
X746760Y495630D02*
Y505130D01*
X752260Y488380D02*
Y512380D01*
X741260Y488380D02*
Y512380D01*
Y488380D02*
X752260D01*
X741260Y512380D02*
X752260D01*
X694120Y463130D02*
Y474130D01*
X718120Y463130D02*
Y474130D01*
X694120Y463130D02*
X718120D01*
X694120Y474130D02*
X718120D01*
X701370Y468630D02*
X710870D01*
X706120Y463880D02*
Y473380D01*
X695390Y478370D02*
Y489370D01*
X719390Y478370D02*
Y489370D01*
X695390Y478370D02*
X719390D01*
X695390Y489370D02*
X719390D01*
X702640Y483870D02*
X712140D01*
X707390Y479120D02*
Y488620D01*
X655650Y543560D02*
X665150D01*
X660400Y538810D02*
Y548310D01*
X665900Y531560D02*
Y555560D01*
X654900Y531560D02*
Y555560D01*
Y531560D02*
X665900D01*
X654900Y555560D02*
X665900D01*
X739470Y619760D02*
X748970D01*
X744220Y615010D02*
Y624510D01*
X738720Y607760D02*
Y631760D01*
X749720Y607760D02*
Y631760D01*
X738720D02*
X749720D01*
X738720Y607760D02*
X749720D01*
X332740Y415620D02*
Y425120D01*
X327990Y420370D02*
X337490D01*
X320740Y425870D02*
X344740D01*
X320740Y414870D02*
X344740D01*
Y425870D01*
X320740Y414870D02*
Y425870D01*
X335610Y443230D02*
X345110D01*
X340360Y438480D02*
Y447980D01*
X345860Y431230D02*
Y455230D01*
X334860Y431230D02*
Y455230D01*
Y431230D02*
X345860D01*
X334860Y455230D02*
X345860D01*
X350520Y523570D02*
Y533070D01*
X345770Y528320D02*
X355270D01*
X338520Y533820D02*
X362520D01*
X338520Y522820D02*
X362520D01*
Y533820D01*
X338520Y522820D02*
Y533820D01*
X488010Y499110D02*
X497510D01*
X492760Y494360D02*
Y503860D01*
X498260Y487110D02*
Y511110D01*
X487260Y487110D02*
Y511110D01*
X498260D01*
X487260Y487110D02*
X498260D01*
X472020Y511110D02*
X483020D01*
X472020Y487110D02*
X483020D01*
Y511110D01*
X472020Y487110D02*
Y511110D01*
X477520Y494360D02*
Y503860D01*
X472770Y499110D02*
X482270D01*
X452120Y498742D02*
Y508242D01*
X447370Y503493D02*
X456870D01*
X440120Y497993D02*
X464120D01*
X440120Y508993D02*
X464120D01*
Y497993D02*
Y508993D01*
X440120Y497993D02*
Y508993D01*
X543110Y405980D02*
Y416980D01*
X567110Y405980D02*
Y416980D01*
X543110D02*
X567110D01*
X543110Y405980D02*
X567110D01*
X550360Y411480D02*
X559860D01*
X555110Y406730D02*
Y416230D01*
X646760Y254000D02*
X656260D01*
X651510Y249250D02*
Y258750D01*
X657010Y242000D02*
Y266000D01*
X646010Y242000D02*
Y266000D01*
X657010D01*
X646010Y242000D02*
X657010D01*
X662000Y254000D02*
X671500D01*
X666750Y249250D02*
Y258750D01*
X672250Y242000D02*
Y266000D01*
X661250Y242000D02*
Y266000D01*
X672250D01*
X661250Y242000D02*
X672250D01*
X736180Y252100D02*
X747180D01*
X736180Y228100D02*
X747180D01*
Y252100D01*
X736180Y228100D02*
Y252100D01*
X741680Y235350D02*
Y244850D01*
X736930Y240100D02*
X746430D01*
X630250Y360680D02*
X639750D01*
X635000Y355930D02*
Y365430D01*
X629500Y348680D02*
Y372680D01*
X640500Y348680D02*
Y372680D01*
X629500D02*
X640500D01*
X629500Y348680D02*
X640500D01*
X625540Y391437D02*
Y402437D01*
X649540Y391437D02*
Y402437D01*
X625540D02*
X649540D01*
X625540Y391437D02*
X649540D01*
X632790Y396937D02*
X642290D01*
X637540Y392188D02*
Y401688D01*
X839470Y505790D02*
Y515290D01*
X834720Y510540D02*
X844220D01*
X827470Y516040D02*
X851470D01*
X827470Y505040D02*
X851470D01*
X827470D02*
Y516040D01*
X851470Y505040D02*
Y516040D01*
X845820Y569290D02*
Y578790D01*
X841070Y574040D02*
X850570D01*
X833820Y579540D02*
X857820D01*
X833820Y568540D02*
X857820D01*
X833820D02*
Y579540D01*
X857820Y568540D02*
Y579540D01*
X825830Y664210D02*
X835330D01*
X830580Y659460D02*
Y668960D01*
X825080Y652210D02*
Y676210D01*
X836080Y652210D02*
Y676210D01*
X825080D02*
X836080D01*
X825080Y652210D02*
X836080D01*
X702390Y665480D02*
X712390D01*
X707390Y660480D02*
Y670480D01*
X724890Y645980D02*
Y684980D01*
X689890Y645980D02*
Y684980D01*
Y645980D02*
X724890D01*
X689890Y684980D02*
X724890D01*
X670890Y668020D02*
X680390D01*
X675640Y663270D02*
Y672770D01*
X681140Y656020D02*
Y680020D01*
X670140Y656020D02*
Y680020D01*
Y656020D02*
X681140D01*
X670140Y680020D02*
X681140D01*
X640183Y664210D02*
X650183D01*
X645183Y659210D02*
Y669210D01*
X662683Y644710D02*
Y683710D01*
X627683Y644710D02*
Y683710D01*
Y644710D02*
X662683D01*
X627683Y683710D02*
X662683D01*
X604520Y654380D02*
Y663880D01*
X599770Y659130D02*
X609270D01*
X592520Y664630D02*
X616520D01*
X592520Y653630D02*
X616520D01*
Y664630D01*
X592520Y653630D02*
Y664630D01*
X603250Y677240D02*
Y686740D01*
X598500Y681990D02*
X608000D01*
X591250Y687490D02*
X615250D01*
X591250Y676490D02*
X615250D01*
Y687490D01*
X591250Y676490D02*
Y687490D01*
X542290Y555320D02*
Y564820D01*
X537540Y560070D02*
X547040D01*
X530290Y554570D02*
X554290D01*
X530290Y565570D02*
X554290D01*
X530290Y554570D02*
Y565570D01*
X554290Y554570D02*
Y565570D01*
X518160Y635330D02*
Y644830D01*
X513410Y640080D02*
X522910D01*
X506160Y634580D02*
X530160D01*
X506160Y645580D02*
X530160D01*
X506160Y634580D02*
Y645580D01*
X530160Y634580D02*
Y645580D01*
X464900Y632460D02*
X474900D01*
X469900Y627460D02*
Y637460D01*
X452400Y612960D02*
Y651960D01*
X487400Y612960D02*
Y651960D01*
X452400Y612960D02*
X487400D01*
X452400Y651960D02*
X487400D01*
X433920Y608900D02*
X444920D01*
X433920Y584900D02*
X444920D01*
Y608900D01*
X433920Y584900D02*
Y608900D01*
X439420Y592150D02*
Y601650D01*
X434670Y596900D02*
X444170D01*
X433920Y641920D02*
X444920D01*
X433920Y617920D02*
X444920D01*
Y641920D01*
X433920Y617920D02*
Y641920D01*
X439420Y625170D02*
Y634670D01*
X434670Y629920D02*
X444170D01*
X597750Y546550D02*
X608750D01*
X597750Y522550D02*
X608750D01*
X597750D02*
Y546550D01*
X608750Y522550D02*
Y546550D01*
X603250Y529800D02*
Y539300D01*
X598500Y534550D02*
X608000D01*
X612990Y546670D02*
X623990D01*
X612990Y522670D02*
X623990D01*
X612990D02*
Y546670D01*
X623990Y522670D02*
Y546670D01*
X618490Y529920D02*
Y539420D01*
X613740Y534670D02*
X623240D01*
X494880Y263460D02*
X505880D01*
X494880Y239460D02*
X505880D01*
X494880D02*
Y263460D01*
X505880Y239460D02*
Y263460D01*
X500380Y246710D02*
Y256210D01*
X495630Y251460D02*
X505130D01*
X737170Y292950D02*
Y303950D01*
X713170Y292950D02*
Y303950D01*
X737170D01*
X713170Y292950D02*
X737170D01*
X720420Y298450D02*
X729920D01*
X725170Y293700D02*
Y303200D01*
X676490Y242000D02*
X687490D01*
X676490Y266000D02*
X687490D01*
X676490Y242000D02*
Y266000D01*
X687490Y242000D02*
Y266000D01*
X681990Y249250D02*
Y258750D01*
X677240Y254000D02*
X686740D01*
X723480Y607760D02*
X734480D01*
X723480Y631760D02*
X734480D01*
Y607760D02*
Y631760D01*
X723480Y607760D02*
Y631760D01*
X728980Y615010D02*
Y624510D01*
X724230Y619760D02*
X733730D01*
X738720Y377760D02*
X749720D01*
X738720Y353760D02*
X749720D01*
Y377760D01*
X738720Y353760D02*
Y377760D01*
X744220Y361010D02*
Y370510D01*
X739470Y365760D02*
X748970D01*
X753960Y376490D02*
X764960D01*
X753960Y352490D02*
X764960D01*
Y376490D01*
X753960Y352490D02*
Y376490D01*
X759460Y359740D02*
Y369240D01*
X754710Y364490D02*
X764210D01*
X723480Y379030D02*
X734480D01*
X723480Y355030D02*
X734480D01*
Y379030D01*
X723480Y355030D02*
Y379030D01*
X728980Y362280D02*
Y371780D01*
X724230Y367030D02*
X733730D01*
X581090Y242150D02*
Y253150D01*
X605090Y242150D02*
Y253150D01*
X581090D02*
X605090D01*
X581090Y242150D02*
X605090D01*
X588340Y247650D02*
X597840D01*
X593090Y242900D02*
Y252400D01*
X733360Y388200D02*
Y399200D01*
X709360Y388200D02*
Y399200D01*
Y388200D02*
X733360D01*
X709360Y399200D02*
X733360D01*
X716610Y393700D02*
X726110D01*
X721360Y388950D02*
Y398450D01*
X602680Y302537D02*
Y313538D01*
X626680Y302537D02*
Y313538D01*
X602680D02*
X626680D01*
X602680Y302537D02*
X626680D01*
X609930Y308037D02*
X619430D01*
X614680Y303288D02*
Y312787D01*
X605220Y331050D02*
Y342050D01*
X629220Y331050D02*
Y342050D01*
X605220D02*
X629220D01*
X605220Y331050D02*
X629220D01*
X612470Y336550D02*
X621970D01*
X617220Y331800D02*
Y341300D01*
X603950Y352640D02*
Y363640D01*
X627950Y352640D02*
Y363640D01*
X603950D02*
X627950D01*
X603950Y352640D02*
X627950D01*
X611200Y358140D02*
X620700D01*
X615950Y353390D02*
Y362890D01*
X581090Y287870D02*
Y298870D01*
X605090Y287870D02*
Y298870D01*
X581090D02*
X605090D01*
X581090Y287870D02*
X605090D01*
X588340Y293370D02*
X597840D01*
X593090Y288620D02*
Y298120D01*
X581963Y258660D02*
Y269660D01*
X605962Y258660D02*
Y269660D01*
X581963D02*
X605962D01*
X581963Y258660D02*
X605962D01*
X589213Y264160D02*
X598713D01*
X593963Y259410D02*
Y268910D01*
X581090Y273203D02*
Y284203D01*
X605090Y273203D02*
Y284203D01*
X581090D02*
X605090D01*
X581090Y273203D02*
X605090D01*
X588340Y278703D02*
X597840D01*
X593090Y273953D02*
Y283453D01*
X700340Y494880D02*
Y505880D01*
X676340Y494880D02*
Y505880D01*
X700340D01*
X676340Y494880D02*
X700340D01*
X683590Y500380D02*
X693090D01*
X688340Y495630D02*
Y505130D01*
X465390Y483450D02*
Y494450D01*
X441390Y483450D02*
Y494450D01*
Y483450D02*
X465390D01*
X441390Y494450D02*
X465390D01*
X448640Y488950D02*
X458140D01*
X453390Y484200D02*
Y493700D01*
X737450Y658560D02*
X748450D01*
X737450Y682560D02*
X748450D01*
Y658560D02*
Y682560D01*
X737450Y658560D02*
Y682560D01*
X742950Y665810D02*
Y675310D01*
X738200Y670560D02*
X747700D01*
X554990Y421273D02*
Y430773D01*
X550240Y426022D02*
X559740D01*
X542990Y420522D02*
X566990D01*
X542990Y431522D02*
X566990D01*
Y420522D02*
Y431522D01*
X542990Y420522D02*
Y431522D01*
X637540Y406730D02*
Y416230D01*
X632790Y411480D02*
X642290D01*
X625540Y416980D02*
X649540D01*
X625540Y405980D02*
X649540D01*
X625540D02*
Y416980D01*
X649540Y405980D02*
Y416980D01*
X698830Y241250D02*
X708330D01*
X703580Y236500D02*
Y246000D01*
X709080Y229250D02*
Y253250D01*
X698080Y229250D02*
Y253250D01*
X709080D01*
X698080Y229250D02*
X709080D01*
X728980Y296240D02*
Y305740D01*
X724230Y300990D02*
X733730D01*
X716980Y295490D02*
X740980D01*
X716980Y306490D02*
X740980D01*
Y295490D02*
Y306490D01*
X716980Y295490D02*
Y306490D01*
X715340Y241250D02*
X724840D01*
X720090Y236500D02*
Y246000D01*
X714590Y229250D02*
Y253250D01*
X725590Y229250D02*
Y253250D01*
X714590Y229250D02*
X725590D01*
X714590Y253250D02*
X725590D01*
X618820Y595630D02*
X628320D01*
X623570Y590880D02*
Y600380D01*
X629070Y583630D02*
Y607630D01*
X618070Y583630D02*
Y607630D01*
Y583630D02*
X629070D01*
X618070Y607630D02*
X629070D01*
D14*
X650214Y394462D02*
X660212D01*
X650214Y378491D02*
Y394462D01*
X565054Y378491D02*
X650214D01*
X565054D02*
Y394462D01*
X555056D02*
X565054D01*
X555056D02*
Y404460D01*
X539085D02*
X555056D01*
X539085D02*
Y489620D01*
X555056D01*
Y499618D01*
X565054D01*
Y515589D01*
X650214D01*
Y499618D02*
Y515589D01*
Y499618D02*
X660212D01*
Y489620D02*
Y499618D01*
Y489620D02*
X676183D01*
Y404460D02*
Y489620D01*
X660212Y404460D02*
X676183D01*
X660212Y394462D02*
Y404460D01*
M02*
