G04*
G04 #@! TF.GenerationSoftware,Altium Limited,Altium Designer,18.0.12 (696)*
G04*
G04 Layer_Physical_Order=1*
G04 Layer_Color=255*
%FSLAX44Y44*%
%MOMM*%
G71*
G01*
G75*
%ADD16C,0.2540*%
%ADD17R,0.9000X0.7000*%
%ADD18R,0.8000X0.9000*%
%ADD19O,0.8000X1.8000*%
%ADD20R,0.7000X0.9000*%
%ADD21R,1.2000X1.2000*%
%ADD22R,1.2000X1.2000*%
%ADD23R,0.9000X0.8000*%
%ADD24R,0.2400X0.6000*%
%ADD25R,0.6000X0.2400*%
%ADD26R,2.0500X3.0500*%
%ADD27R,0.7500X0.4000*%
%ADD28R,0.2000X0.5250*%
%ADD29R,0.3048X0.7874*%
%ADD30R,2.4892X1.7526*%
G04:AMPARAMS|DCode=31|XSize=1.5mm|YSize=1.4mm|CornerRadius=0mm|HoleSize=0mm|Usage=FLASHONLY|Rotation=45.000|XOffset=0mm|YOffset=0mm|HoleType=Round|Shape=Rectangle|*
%AMROTATEDRECTD31*
4,1,4,-0.0354,-1.0253,-1.0253,-0.0354,0.0354,1.0253,1.0253,0.0354,-0.0354,-1.0253,0.0*
%
%ADD31ROTATEDRECTD31*%

%ADD32R,1.5000X3.4000*%
%ADD33R,1.0000X3.5000*%
%ADD34R,0.6000X1.1500*%
%ADD35R,1.7500X0.5900*%
%ADD36R,0.8128X0.3048*%
%ADD37R,1.5748X2.3622*%
%ADD38C,1.5240*%
%ADD39R,1.2200X0.9100*%
%ADD71R,1.0000X1.0000*%
%ADD72C,0.0254*%
%ADD73C,0.5000*%
%ADD74C,1.0000*%
%ADD75C,0.3000*%
%ADD76C,1.5000*%
%ADD77R,1.5000X1.5000*%
%ADD78C,1.7000*%
%ADD79R,0.9000X0.9000*%
%ADD80C,0.9000*%
%ADD81C,1.2700*%
G36*
X482510Y482460D02*
D01*
D02*
G37*
D16*
X525780Y515620D02*
X551180D01*
X482600Y558800D02*
X525780Y515620D01*
X482600Y558800D02*
Y564120D01*
X460400Y591160D02*
Y643710D01*
X472440Y579120D02*
X482600D01*
X460400Y591160D02*
X472440Y579120D01*
X639350Y620640D02*
X639350D01*
X829249Y541940D02*
X855980D01*
X861060Y511810D02*
X862330D01*
X863600Y510540D01*
X846470D02*
X863600D01*
X826749Y514841D02*
X832320Y509270D01*
X832470Y510540D02*
X836749Y514818D01*
Y527335D01*
X664000Y313235D02*
Y332360D01*
X666750Y347860D02*
Y352360D01*
Y340360D02*
Y347860D01*
Y335110D02*
Y340360D01*
X664000Y332360D02*
X666750Y335110D01*
X650250Y317610D02*
X659250Y308610D01*
X651510Y298450D02*
X666750D01*
X636270Y313690D02*
X651510Y298450D01*
X636270Y313690D02*
Y320040D01*
X643840Y327610D01*
X650250D01*
X595630Y463550D02*
X608330Y450850D01*
X617670D01*
X674242Y393700D02*
X675512Y394970D01*
X665352Y384810D02*
X674242Y393700D01*
X676782D02*
X714360D01*
X674242D02*
X676782D01*
X655448Y384810D02*
X665352D01*
X552450Y458470D02*
Y494992D01*
X590858Y533400D01*
X473590Y491610D02*
X477520D01*
X461707Y503493D02*
X473590Y491610D01*
X459120Y503493D02*
X461707D01*
X435610Y513003D02*
Y525780D01*
Y513003D02*
X445120Y503493D01*
X589280Y457200D02*
X595630Y463550D01*
X553720Y457200D02*
X589280D01*
X552450Y458470D02*
X553720Y457200D01*
X555930Y440810D02*
X565970Y450850D01*
X547490Y440810D02*
X555930D01*
X647418Y445888D02*
X647582D01*
X601980Y441960D02*
X642343D01*
X647582Y447200D01*
X617670Y450850D02*
Y463550D01*
Y477334D02*
X618212Y476792D01*
X617670Y463550D02*
Y476250D01*
Y477334D02*
Y488950D01*
X547490Y495420D02*
X621030Y568960D01*
X458350Y541020D02*
X492760Y506610D01*
X482480Y491610D02*
X494030Y480060D01*
Y490340D01*
Y477520D02*
Y480060D01*
X492760Y491610D02*
X494030Y490340D01*
X737630Y314960D02*
X739140D01*
X736480Y316110D02*
X737630Y314960D01*
X565080Y617150D02*
Y627260D01*
X631190Y256540D02*
X636270D01*
X645810Y247000D01*
X651510D01*
X666750D02*
X681990D01*
X651510D02*
X666750D01*
X651510Y261000D02*
X666750D01*
X681990D01*
X728980Y374030D02*
X744220D01*
X758190Y372760D02*
X759460Y371490D01*
X744220Y372760D02*
X758190D01*
X684520Y332780D02*
X734750D01*
X759460Y357490D01*
X726400Y337780D02*
X744220Y355600D01*
Y358760D01*
X728360Y393700D02*
X728980Y393080D01*
Y374030D02*
Y393080D01*
X711730Y342780D02*
X728980Y360030D01*
X684520Y342780D02*
X711730D01*
X525110Y255632D02*
Y281340D01*
X558800Y247650D01*
X524510Y281940D02*
X525110Y281340D01*
X524510Y281940D02*
Y295910D01*
X558800Y247650D02*
X586090D01*
X600090D02*
Y278703D01*
X675512Y394970D02*
X676782Y393700D01*
X826749Y556544D02*
Y568982D01*
X831749Y562509D02*
X837400Y568160D01*
X831749Y556544D02*
Y562509D01*
X766548Y575740D02*
X779780Y588972D01*
Y619760D01*
X733630Y560910D02*
X748460Y575740D01*
X766548D01*
X621030Y568960D02*
X735330D01*
X745920Y579550D01*
X764970D01*
X774700Y589280D01*
X837400Y568160D02*
Y574040D01*
X641350Y361510D02*
X650250Y352610D01*
X635830Y367030D02*
X641350Y361510D01*
X608950Y358140D02*
X617840Y367030D01*
X635830D01*
X593090Y336550D02*
X610220D01*
X586740Y342900D02*
X593090Y336550D01*
X586740Y342900D02*
Y355600D01*
X589280Y358140D01*
X608950D01*
X535940Y345440D02*
Y397382D01*
Y345440D02*
X543560Y337820D01*
X598170Y347980D02*
X598242Y347907D01*
X607680Y308037D02*
Y334010D01*
X610220Y336550D01*
X600090Y300448D02*
X607680Y308037D01*
X600090Y293370D02*
Y300448D01*
X630363Y337780D02*
X651520D01*
X629132Y336550D02*
X630363Y337780D01*
X624220Y336550D02*
X629132D01*
X621680Y313690D02*
X640600Y332610D01*
X621680Y308037D02*
Y313690D01*
X635000Y359410D02*
X646130Y348280D01*
X622950Y359410D02*
X635000D01*
X640600Y332610D02*
X650250D01*
X641350Y370712D02*
X655448Y384810D01*
X545880Y313860D02*
X573382D01*
X598242Y347907D02*
X636002D01*
X586090Y264160D02*
Y278703D01*
Y293370D01*
X573382Y306078D02*
X586090Y293370D01*
X573382Y306078D02*
Y313860D01*
X600090Y278703D02*
Y293370D01*
X535940Y397382D02*
X541148Y402590D01*
X444470Y484490D02*
X446390Y486410D01*
X437500Y477520D02*
X444470Y484490D01*
X430530Y477520D02*
X437500D01*
X460390Y486410D02*
X473710Y473090D01*
X460390Y479440D02*
Y486410D01*
X457070Y476120D02*
X460390Y479440D01*
X457070Y453257D02*
Y476120D01*
X444470Y453257D02*
Y484490D01*
X406370Y476220D02*
X408940Y478790D01*
X406370Y453157D02*
Y476220D01*
X852820Y574040D02*
Y585470D01*
X645040Y396937D02*
X658432D01*
X661670Y393700D01*
X829249Y541940D02*
X831749Y539440D01*
Y527335D02*
Y539440D01*
X854120Y671830D02*
X855390Y673100D01*
Y648100D02*
X855580D01*
X821749Y549440D02*
X829249Y541940D01*
X821749Y549440D02*
Y556544D01*
X826749Y514841D02*
Y527335D01*
X659250Y360800D02*
X679450Y381000D01*
X659250Y356610D02*
Y360800D01*
X690880Y368300D02*
X693420Y365760D01*
X679450Y372350D02*
Y381000D01*
X674250Y367150D02*
X679450Y372350D01*
X674250Y356610D02*
Y367150D01*
X641350Y361510D02*
Y370712D01*
X338120Y490520D02*
X358140D01*
X336550Y488950D02*
X338120Y490520D01*
X723900Y656590D02*
X732790Y647700D01*
X717550Y656590D02*
X723900D01*
X763270Y621030D02*
X774700Y609600D01*
Y589280D02*
Y609600D01*
X472440Y603250D02*
Y604520D01*
X469900Y607060D02*
X472440Y604520D01*
X387350Y549910D02*
X408940D01*
X442670Y290270D02*
X443230Y290830D01*
X442670Y274657D02*
Y290270D01*
X371670Y290390D02*
X372110Y290830D01*
X371670Y274657D02*
Y290390D01*
X666750Y298450D02*
X674250Y305950D01*
Y313610D01*
X659250Y308610D02*
Y313610D01*
Y305950D02*
Y308610D01*
Y305950D02*
X666750Y298450D01*
X647700Y533400D02*
X655320Y541020D01*
X590858Y533400D02*
X647700D01*
X663780Y560910D02*
X733630D01*
X655320Y552450D02*
X663780Y560910D01*
X548640Y374650D02*
X561086D01*
X584200Y397764D01*
X548640Y368300D02*
Y374650D01*
X573182Y335598D02*
Y349662D01*
X508000Y326820D02*
X524510Y310310D01*
Y295910D02*
Y310310D01*
X502772Y295410D02*
Y295710D01*
Y277008D02*
Y295410D01*
Y277008D02*
X502920Y276860D01*
X598170Y424180D02*
X601980Y427990D01*
X547610Y411600D02*
X552380D01*
X547610D02*
Y425903D01*
Y411480D02*
Y411600D01*
X547490Y426022D02*
X547610Y425903D01*
X584200Y422602D02*
X585778Y424180D01*
X598170D01*
X601980Y427990D02*
Y441960D01*
X596900Y447040D02*
X601980Y441960D01*
X585470Y447040D02*
X596900D01*
X575310Y436880D02*
X585470Y447040D01*
X558348Y436880D02*
X575310D01*
X547490Y426022D02*
X558348Y436880D01*
X525110Y255632D02*
X566112Y214630D01*
X760730D01*
X801370Y255270D01*
Y293370D01*
X698500Y347980D02*
X703580Y353060D01*
X749300Y318770D02*
X760730Y307340D01*
X749300Y318770D02*
Y323722D01*
X736728Y328930D02*
X744092D01*
X735408Y327610D02*
X736728Y328930D01*
X683250Y327610D02*
X735408D01*
X693420Y356870D02*
Y365760D01*
X582233Y426022D02*
X591820Y435610D01*
X709930Y300990D02*
X721480D01*
X688140Y322780D02*
X709930Y300990D01*
X710240Y292100D02*
X723900D01*
X684390Y317950D02*
X710240Y292100D01*
X718020Y315430D02*
X718490Y314960D01*
X744092Y328930D02*
X749300Y323722D01*
X760730Y251650D02*
Y307340D01*
X736480Y300990D02*
Y316110D01*
X689500Y352950D02*
X693420Y356870D01*
X717550Y267970D02*
Y276860D01*
X710900Y261320D02*
X717550Y267970D01*
X691010Y261320D02*
X710900D01*
X717550Y276860D02*
X720090Y274320D01*
X720090Y252730D02*
X727710Y260350D01*
X720090Y248750D02*
Y252730D01*
X723900Y260350D02*
X727710D01*
X691010Y261320D02*
X703580Y248750D01*
X723900Y292100D02*
X741680Y274320D01*
Y247600D02*
Y274320D01*
X684420Y347980D02*
X698500D01*
X684390Y347950D02*
X684420Y347980D01*
X682943Y261320D02*
X691010D01*
X684390Y352950D02*
X689500D01*
X684520Y337780D02*
X726400D01*
X522267Y638810D02*
X538872Y622205D01*
X504190Y638810D02*
X522267D01*
X491490Y626110D02*
X504190Y638810D01*
X530860Y328880D02*
Y331342D01*
X509270Y350470D02*
X511732D01*
X530860Y331342D01*
Y328880D02*
X545880Y313860D01*
X651400Y342900D02*
X651520Y342780D01*
X641010Y342900D02*
X651400D01*
X612140Y417576D02*
Y430530D01*
X697550Y656590D02*
Y678500D01*
X699770Y680720D01*
X723900D01*
X728980Y675640D01*
Y670560D02*
Y675640D01*
Y670560D02*
X779780Y619760D01*
X655320Y541020D02*
Y552450D01*
X547490Y440810D02*
Y495420D01*
Y426022D02*
Y440810D01*
X552380Y406638D02*
Y411600D01*
X636002Y347907D02*
X641010Y342900D01*
X541148Y402590D02*
X548332D01*
X552380Y406638D01*
X490220Y358140D02*
Y425450D01*
X584200Y417576D02*
Y422602D01*
X567690Y411480D02*
X576580Y402590D01*
X562610Y411480D02*
X567690D01*
X572770Y411788D02*
X576888Y407670D01*
X572770Y411788D02*
Y415743D01*
X562490Y426022D02*
X572770Y415743D01*
X576580Y402590D02*
X584200D01*
X469900Y607060D02*
Y621210D01*
X452120Y579120D02*
Y612140D01*
Y579120D02*
X509270Y521970D01*
Y516890D02*
Y521970D01*
Y516890D02*
X518160Y508000D01*
X446780Y617480D02*
X452120Y612140D01*
X439420Y617480D02*
X446780D01*
X439420D02*
Y622420D01*
X479400Y638200D02*
X491490Y626110D01*
X479400Y638200D02*
Y643710D01*
X439420Y574168D02*
Y589400D01*
Y574168D02*
X514350Y499238D01*
Y459740D02*
Y499238D01*
X477520Y506610D02*
Y506730D01*
X411480Y572770D02*
X477520Y506730D01*
X417710Y604400D02*
X439420D01*
X411480Y598170D02*
X417710Y604400D01*
X425330Y637420D02*
X439420D01*
X411480Y623570D02*
X425330Y637420D01*
X429260Y417830D02*
Y450647D01*
X431870Y453257D01*
X419070Y438120D02*
Y453157D01*
X367670D02*
Y462050D01*
Y403230D02*
Y453157D01*
X367030Y402590D02*
X367670Y403230D01*
X477520Y491610D02*
X482480D01*
X417830Y436880D02*
X419070Y438120D01*
X393670Y462050D02*
Y504160D01*
X630040Y425570D02*
X633730Y429260D01*
X630040Y411480D02*
Y425570D01*
X544830Y393700D02*
X562610Y411480D01*
X562490Y426022D02*
X582233D01*
X576888Y407670D02*
X584200D01*
X741680Y232600D02*
X760730Y251650D01*
X684520Y322780D02*
X688140D01*
X646130Y348280D02*
X653020D01*
X717550Y642620D02*
Y656590D01*
X645040Y443510D02*
X647418Y445888D01*
X647582D02*
Y447200D01*
X645040Y411480D02*
Y443510D01*
X612140Y397256D02*
X612458Y396937D01*
X630040D01*
X612140Y407670D02*
X621030D01*
X624840Y411480D01*
X630040D01*
X740530Y233750D02*
X741680Y232600D01*
X720090Y233750D02*
X740530D01*
X720090Y233750D02*
X720090Y233750D01*
X703580Y233750D02*
X720090D01*
X622615Y734771D02*
X620948Y736437D01*
X617616D01*
X615950Y734771D01*
Y733104D01*
X617616Y731438D01*
X620948D01*
X622615Y729772D01*
Y728106D01*
X620948Y726440D01*
X617616D01*
X615950Y728106D01*
X627613Y734771D02*
Y733104D01*
X625947D01*
X629279D01*
X627613D01*
Y728106D01*
X629279Y726440D01*
X634277Y733104D02*
Y726440D01*
Y729772D01*
X635944Y731438D01*
X637610Y733104D01*
X639276D01*
X644274Y726440D02*
X647607D01*
X645940D01*
Y733104D01*
X644274D01*
X652605Y726440D02*
Y733104D01*
X657603D01*
X659269Y731438D01*
Y726440D01*
X665934Y723108D02*
X667600D01*
X669266Y724774D01*
Y733104D01*
X664268D01*
X662602Y731438D01*
Y728106D01*
X664268Y726440D01*
X669266D01*
X143825Y584911D02*
X142158Y586577D01*
X138826D01*
X137160Y584911D01*
Y583245D01*
X138826Y581578D01*
X142158D01*
X143825Y579912D01*
Y578246D01*
X142158Y576580D01*
X138826D01*
X137160Y578246D01*
X148823Y584911D02*
Y583245D01*
X147157D01*
X150489D01*
X148823D01*
Y578246D01*
X150489Y576580D01*
X155487Y583245D02*
Y576580D01*
Y579912D01*
X157154Y581578D01*
X158820Y583245D01*
X160486D01*
X165484Y576580D02*
X168817D01*
X167150D01*
Y583245D01*
X165484D01*
X173815Y576580D02*
Y583245D01*
X178813D01*
X180479Y581578D01*
Y576580D01*
X187144Y573248D02*
X188810D01*
X190476Y574914D01*
Y583245D01*
X185478D01*
X183812Y581578D01*
Y578246D01*
X185478Y576580D01*
X190476D01*
D17*
X482600Y564120D02*
D03*
Y579120D02*
D03*
X492760Y506610D02*
D03*
Y491610D02*
D03*
X477520Y506610D02*
D03*
Y491610D02*
D03*
X741680Y247600D02*
D03*
Y232600D02*
D03*
X439420Y604400D02*
D03*
Y589400D02*
D03*
Y637420D02*
D03*
Y622420D02*
D03*
X703580Y248750D02*
D03*
Y233750D02*
D03*
X720090Y233750D02*
D03*
Y248750D02*
D03*
D18*
X459120Y503493D02*
D03*
X445120D02*
D03*
X832470Y510540D02*
D03*
X846470D02*
D03*
X838820Y574040D02*
D03*
X852820D02*
D03*
X586090Y247650D02*
D03*
X600090D02*
D03*
X728360Y393700D02*
D03*
X714360D02*
D03*
X607680Y308037D02*
D03*
X621680D02*
D03*
X610220Y336550D02*
D03*
X624220D02*
D03*
X608950Y358140D02*
D03*
X622950D02*
D03*
X586090Y293370D02*
D03*
X600090D02*
D03*
X586963Y264160D02*
D03*
X600963D02*
D03*
X586090Y278703D02*
D03*
X600090D02*
D03*
X460390Y488950D02*
D03*
X446390D02*
D03*
D19*
X372110Y276860D02*
D03*
X443110D02*
D03*
X462710D02*
D03*
X381510Y455360D02*
D03*
X406810D02*
D03*
X419510D02*
D03*
X444910Y455460D02*
D03*
X394110Y455360D02*
D03*
X368110D02*
D03*
X457510Y455460D02*
D03*
X432310D02*
D03*
D20*
X547610Y411480D02*
D03*
X562610D02*
D03*
X630040Y396937D02*
D03*
X645040D02*
D03*
X562490Y426022D02*
D03*
X547490D02*
D03*
X630040Y411480D02*
D03*
X645040D02*
D03*
X736480Y300990D02*
D03*
X721480D02*
D03*
D21*
X502772Y295710D02*
D03*
X524510Y295910D02*
D03*
D22*
X573182Y335598D02*
D03*
X573382Y313860D02*
D03*
D23*
X651510Y261000D02*
D03*
Y247000D02*
D03*
X666750Y261000D02*
D03*
Y247000D02*
D03*
X681990D02*
D03*
Y261000D02*
D03*
X744220Y372760D02*
D03*
Y358760D02*
D03*
X759460Y371490D02*
D03*
Y357490D02*
D03*
X728980Y374030D02*
D03*
Y360030D02*
D03*
D24*
X659250Y356610D02*
D03*
X674250D02*
D03*
X659250Y313610D02*
D03*
X674250D02*
D03*
D25*
X650250Y337610D02*
D03*
Y332610D02*
D03*
Y327610D02*
D03*
Y322610D02*
D03*
Y317610D02*
D03*
Y342610D02*
D03*
X651750Y348110D02*
D03*
X650250Y352610D02*
D03*
X683250Y337610D02*
D03*
Y332610D02*
D03*
Y327610D02*
D03*
Y322610D02*
D03*
Y317610D02*
D03*
Y342610D02*
D03*
Y347610D02*
D03*
Y352610D02*
D03*
D26*
X666750Y335110D02*
D03*
D27*
Y352360D02*
D03*
Y317860D02*
D03*
D28*
X664000Y356985D02*
D03*
X669500D02*
D03*
Y313235D02*
D03*
X664000D02*
D03*
D29*
X821749Y527335D02*
D03*
X826749D02*
D03*
X831749D02*
D03*
X836749D02*
D03*
Y556544D02*
D03*
X831749D02*
D03*
X826749D02*
D03*
X821749D02*
D03*
D30*
X829249Y541940D02*
D03*
D31*
X785000Y529450D02*
D03*
X758130Y556320D02*
D03*
D32*
X674528Y599090D02*
D03*
X741527D02*
D03*
D33*
X698027Y656590D02*
D03*
X718027D02*
D03*
D34*
X469900Y621210D02*
D03*
X460400Y643710D02*
D03*
X479400D02*
D03*
D35*
X617670Y488950D02*
D03*
Y476250D02*
D03*
Y463550D02*
D03*
Y450850D02*
D03*
X565970D02*
D03*
Y463550D02*
D03*
Y476250D02*
D03*
Y488950D02*
D03*
D36*
X584200Y417576D02*
D03*
Y412750D02*
D03*
Y407670D02*
D03*
Y402590D02*
D03*
Y397764D02*
D03*
X612140D02*
D03*
Y402590D02*
D03*
Y407670D02*
D03*
Y412750D02*
D03*
Y417576D02*
D03*
D37*
X598170Y407670D02*
D03*
D38*
X508000Y348820D02*
D03*
Y326820D02*
D03*
X514350Y620640D02*
D03*
X539350D02*
D03*
X564350D02*
D03*
X589350D02*
D03*
X614350D02*
D03*
X639350D02*
D03*
X783590Y673100D02*
D03*
Y648500D02*
D03*
X855390Y673100D02*
D03*
Y648100D02*
D03*
D39*
X647582Y447200D02*
D03*
Y479900D02*
D03*
D71*
X407670Y668020D02*
D03*
X350520Y231140D02*
D03*
D72*
X454410Y455460D02*
X455135D01*
X457510D01*
X455135D02*
X457510D01*
X458310D01*
X524472Y295110D02*
X524510Y295910D01*
X502772Y295410D02*
Y295710D01*
X572582Y313898D02*
X573382Y313860D01*
X572882Y335598D02*
X573182D01*
D73*
X565970Y463550D02*
Y476250D01*
Y488950D01*
X630462Y497020D02*
X647582Y479900D01*
X574040Y497020D02*
X630462D01*
X565970Y488950D02*
X574040Y497020D01*
X647582Y479900D02*
X802950D01*
X832320Y509270D01*
X837400Y630110D02*
X855390Y648100D01*
X837400Y574040D02*
Y630110D01*
D74*
X822960Y572770D02*
X826749Y568982D01*
X784860Y572770D02*
X822960D01*
X768350Y556260D02*
X784860Y572770D01*
X760730Y556260D02*
X768350D01*
X807720Y513080D02*
X808990Y514350D01*
X802640Y513080D02*
X807720D01*
X786130Y529590D02*
X802640Y513080D01*
X817880Y520504D02*
Y526906D01*
X808990Y514350D02*
X817880D01*
Y518160D01*
D75*
X666750Y329860D02*
D03*
X659000D02*
D03*
X674500D02*
D03*
X666750Y340360D02*
D03*
X659000D02*
D03*
X674500D02*
D03*
X666750Y322360D02*
D03*
Y347860D02*
D03*
D76*
X814070Y370840D02*
D03*
X408940Y600710D02*
D03*
Y575310D02*
D03*
Y549910D02*
D03*
Y524510D02*
D03*
D77*
X814070Y396240D02*
D03*
X408940Y626110D02*
D03*
D78*
X514350Y548640D02*
D03*
X639350Y549640D02*
D03*
D79*
X358140Y503520D02*
D03*
D80*
Y490520D02*
D03*
Y477520D02*
D03*
D81*
X551180Y515620D02*
D03*
X855980Y541940D02*
D03*
X861060Y511810D02*
D03*
X435610Y525780D02*
D03*
X599320Y561340D02*
D03*
X581660Y544830D02*
D03*
X641350Y523240D02*
D03*
X326390Y403830D02*
D03*
X458350Y541020D02*
D03*
X563880Y297180D02*
D03*
X739140Y314960D02*
D03*
X563880Y637540D02*
D03*
X512280Y654050D02*
D03*
X816610Y650240D02*
D03*
X582530Y660400D02*
D03*
X580390Y683260D02*
D03*
X631190Y256540D02*
D03*
X707300Y628650D02*
D03*
X712470Y613410D02*
D03*
X765810Y511810D02*
D03*
X543560Y337820D02*
D03*
X598170Y347980D02*
D03*
X339090Y542290D02*
D03*
X358140Y543560D02*
D03*
X513080Y387350D02*
D03*
X525780Y360680D02*
D03*
X668020Y524185D02*
D03*
X676910Y549910D02*
D03*
X712470Y501650D02*
D03*
X688340Y518160D02*
D03*
X746760Y521970D02*
D03*
X430530Y477520D02*
D03*
X473710Y473090D02*
D03*
X408940Y478790D02*
D03*
X852820Y585470D02*
D03*
X627380Y685800D02*
D03*
X598170Y641350D02*
D03*
X809790Y672630D02*
D03*
X690880Y368300D02*
D03*
X661670Y393700D02*
D03*
X652780Y369570D02*
D03*
X679450Y381000D02*
D03*
X336550Y488950D02*
D03*
X716280Y425450D02*
D03*
X567690Y594360D02*
D03*
X563880Y574040D02*
D03*
X732790Y647700D02*
D03*
X762000Y598170D02*
D03*
X535940Y651510D02*
D03*
X472440Y603250D02*
D03*
X387350Y524510D02*
D03*
Y549910D02*
D03*
X443230Y290830D02*
D03*
X372110D02*
D03*
X523240Y222250D02*
D03*
X674370Y280670D02*
D03*
X666750Y298450D02*
D03*
X579120Y373027D02*
D03*
X548640Y368300D02*
D03*
X573182Y349662D02*
D03*
X537210Y306070D02*
D03*
X502920Y276860D02*
D03*
X801370Y293370D02*
D03*
X703580Y353060D02*
D03*
X591820Y435610D02*
D03*
X718020Y315430D02*
D03*
X698477Y408918D02*
D03*
X717550Y276860D02*
D03*
X727710Y260350D02*
D03*
X494030Y458470D02*
D03*
X633730Y582930D02*
D03*
X595630Y463550D02*
D03*
X612140Y430530D02*
D03*
X763270Y621030D02*
D03*
X490220Y425450D02*
D03*
Y358140D02*
D03*
X491490Y626110D02*
D03*
X518160Y508000D02*
D03*
X429260Y417830D02*
D03*
X367030Y402590D02*
D03*
X514350Y459740D02*
D03*
X494030Y477520D02*
D03*
X417830Y436880D02*
D03*
X393670Y504160D02*
D03*
X633730Y429260D02*
D03*
X544830Y393700D02*
D03*
X619760Y285750D02*
D03*
X539750Y283210D02*
D03*
M02*
