G04*
G04 #@! TF.GenerationSoftware,Altium Limited,Altium Designer,18.0.12 (696)*
G04*
G04 Layer_Color=128*
%FSLAX44Y44*%
%MOMM*%
G71*
G01*
G75*
%ADD17R,0.9000X0.7000*%
%ADD18R,0.8000X0.9000*%
%ADD20R,0.7000X0.9000*%
%ADD23R,0.9000X0.8000*%
%ADD34R,0.6000X1.1500*%
G04:AMPARAMS|DCode=92|XSize=1.25mm|YSize=0.2mm|CornerRadius=0.05mm|HoleSize=0mm|Usage=FLASHONLY|Rotation=90.000|XOffset=0mm|YOffset=0mm|HoleType=Round|Shape=RoundedRectangle|*
%AMROUNDEDRECTD92*
21,1,1.2500,0.1000,0,0,90.0*
21,1,1.1500,0.2000,0,0,90.0*
1,1,0.1000,0.0500,0.5750*
1,1,0.1000,0.0500,-0.5750*
1,1,0.1000,-0.0500,-0.5750*
1,1,0.1000,-0.0500,0.5750*
%
%ADD92ROUNDEDRECTD92*%
%ADD93R,2.0000X3.0000*%
%ADD94R,0.5000X0.5000*%
%ADD95R,1.9000X1.3000*%
%ADD96R,0.3048X1.1938*%
%ADD97R,1.1938X0.3048*%
%ADD98R,2.4000X3.3000*%
D17*
X637540Y280790D02*
D03*
Y295790D02*
D03*
X340360Y435730D02*
D03*
Y450730D02*
D03*
X675640Y660520D02*
D03*
Y675520D02*
D03*
X603250Y542050D02*
D03*
Y527050D02*
D03*
X618490Y542170D02*
D03*
Y527170D02*
D03*
X500380Y258960D02*
D03*
Y243960D02*
D03*
X742950Y663060D02*
D03*
Y678060D02*
D03*
X623570Y588130D02*
D03*
Y603130D02*
D03*
D18*
X564500Y280670D02*
D03*
X578500D02*
D03*
X685150Y426720D02*
D03*
X699150D02*
D03*
X777890Y495300D02*
D03*
X763890D02*
D03*
X339740Y420370D02*
D03*
X325740D02*
D03*
X357520Y528320D02*
D03*
X343520D02*
D03*
X611520Y659130D02*
D03*
X597520D02*
D03*
X610250Y681990D02*
D03*
X596250D02*
D03*
X535290Y560070D02*
D03*
X549290D02*
D03*
X511160Y640080D02*
D03*
X525160D02*
D03*
X732170Y298450D02*
D03*
X718170D02*
D03*
X695340Y500380D02*
D03*
X681340D02*
D03*
D20*
X698620Y468630D02*
D03*
X713620D02*
D03*
X699890Y483870D02*
D03*
X714890D02*
D03*
D23*
X528320Y388000D02*
D03*
Y374000D02*
D03*
X746760Y493380D02*
D03*
Y507380D02*
D03*
X660400Y536560D02*
D03*
Y550560D02*
D03*
X744220Y626760D02*
D03*
Y612760D02*
D03*
X635000Y367680D02*
D03*
Y353680D02*
D03*
X830580Y671210D02*
D03*
Y657210D02*
D03*
X728980Y612760D02*
D03*
Y626760D02*
D03*
D34*
X707390Y654230D02*
D03*
X716890Y676730D02*
D03*
X697890D02*
D03*
X645183Y652960D02*
D03*
X654683Y675460D02*
D03*
X635683D02*
D03*
D92*
X735420Y225850D02*
D03*
X690420D02*
D03*
X670420D02*
D03*
X650420D02*
D03*
X630420D02*
D03*
X730420D02*
D03*
X710420D02*
D03*
X540420D02*
D03*
X545420D02*
D03*
X550420D02*
D03*
X555420D02*
D03*
X560420D02*
D03*
X565420D02*
D03*
X570420D02*
D03*
X575420D02*
D03*
X580420D02*
D03*
X585420D02*
D03*
X590420D02*
D03*
X595420D02*
D03*
X600420D02*
D03*
X605420D02*
D03*
X610420D02*
D03*
X615420D02*
D03*
X620420D02*
D03*
X625420D02*
D03*
X635420D02*
D03*
X640420D02*
D03*
X645420D02*
D03*
X655420D02*
D03*
X660420D02*
D03*
X665420D02*
D03*
X675420D02*
D03*
X680420D02*
D03*
X685420D02*
D03*
X695420D02*
D03*
X700420D02*
D03*
X705420D02*
D03*
X715420D02*
D03*
X720420D02*
D03*
X725420D02*
D03*
D93*
X751420Y247850D02*
D03*
X524420Y248850D02*
D03*
D94*
X702310Y287330D02*
D03*
Y309330D02*
D03*
D95*
X779270Y470088D02*
D03*
Y415088D02*
D03*
X747270D02*
D03*
Y470088D02*
D03*
D96*
X645134Y504540D02*
D03*
X640134D02*
D03*
X635134D02*
D03*
X630134D02*
D03*
X625134D02*
D03*
X620134D02*
D03*
X615134D02*
D03*
X610134D02*
D03*
X605134D02*
D03*
X600134D02*
D03*
X595134D02*
D03*
X590134D02*
D03*
X585134D02*
D03*
X580134D02*
D03*
X575134D02*
D03*
X570134D02*
D03*
Y389540D02*
D03*
X575134D02*
D03*
X580134D02*
D03*
X585134D02*
D03*
X590134D02*
D03*
X595134D02*
D03*
X600134D02*
D03*
X605134D02*
D03*
X610134D02*
D03*
X615134D02*
D03*
X620134D02*
D03*
X625134D02*
D03*
X630134D02*
D03*
X635134D02*
D03*
X640134D02*
D03*
X645134D02*
D03*
D97*
X550134Y484540D02*
D03*
Y479540D02*
D03*
Y474540D02*
D03*
Y469540D02*
D03*
Y464540D02*
D03*
Y459540D02*
D03*
Y454540D02*
D03*
Y449540D02*
D03*
Y444540D02*
D03*
Y439540D02*
D03*
Y434540D02*
D03*
Y429540D02*
D03*
Y424540D02*
D03*
Y419540D02*
D03*
Y414540D02*
D03*
Y409540D02*
D03*
X665134D02*
D03*
Y414540D02*
D03*
Y419540D02*
D03*
Y424540D02*
D03*
Y429540D02*
D03*
Y434540D02*
D03*
Y439540D02*
D03*
Y444540D02*
D03*
Y449540D02*
D03*
Y454540D02*
D03*
Y459540D02*
D03*
Y464540D02*
D03*
Y469540D02*
D03*
Y474540D02*
D03*
Y479540D02*
D03*
Y484540D02*
D03*
D98*
X520240Y590550D02*
D03*
X589740D02*
D03*
M02*
