G04*
G04 #@! TF.GenerationSoftware,Altium Limited,Altium Designer,18.0.12 (696)*
G04*
G04 Layer_Color=16711935*
%FSLAX44Y44*%
%MOMM*%
G71*
G01*
G75*
%ADD41R,1.1032X0.9032*%
%ADD42R,1.0032X1.1032*%
%ADD44R,0.9032X1.1032*%
%ADD47R,1.1032X1.0032*%
%ADD58R,0.8032X1.3532*%
%ADD62C,1.7272*%
%ADD64C,0.5032*%
%ADD65C,1.7032*%
%ADD66R,1.7032X1.7032*%
%ADD67C,1.9032*%
%ADD68R,1.1032X1.1032*%
%ADD69C,1.1032*%
%ADD70C,1.4732*%
G04:AMPARAMS|DCode=99|XSize=1.4532mm|YSize=0.4032mm|CornerRadius=0.1516mm|HoleSize=0mm|Usage=FLASHONLY|Rotation=90.000|XOffset=0mm|YOffset=0mm|HoleType=Round|Shape=RoundedRectangle|*
%AMROUNDEDRECTD99*
21,1,1.4532,0.1000,0,0,90.0*
21,1,1.1500,0.4032,0,0,90.0*
1,1,0.3032,0.0500,0.5750*
1,1,0.3032,0.0500,-0.5750*
1,1,0.3032,-0.0500,-0.5750*
1,1,0.3032,-0.0500,0.5750*
%
%ADD99ROUNDEDRECTD99*%
%ADD100R,2.2032X3.2032*%
%ADD101R,0.7032X0.7032*%
%ADD102R,2.1032X1.5032*%
%ADD103R,0.5080X1.3970*%
%ADD104R,1.3970X0.5080*%
%ADD105R,2.6032X3.5032*%
D41*
X637540Y280790D02*
D03*
Y295790D02*
D03*
X340360Y435730D02*
D03*
Y450730D02*
D03*
X675640Y660520D02*
D03*
Y675520D02*
D03*
X603250Y542050D02*
D03*
Y527050D02*
D03*
X618490Y542170D02*
D03*
Y527170D02*
D03*
X500380Y258960D02*
D03*
Y243960D02*
D03*
X742950Y663060D02*
D03*
Y678060D02*
D03*
X623570Y588130D02*
D03*
Y603130D02*
D03*
D42*
X564500Y280670D02*
D03*
X578500D02*
D03*
X685150Y426720D02*
D03*
X699150D02*
D03*
X777890Y495300D02*
D03*
X763890D02*
D03*
X339740Y420370D02*
D03*
X325740D02*
D03*
X357520Y528320D02*
D03*
X343520D02*
D03*
X611520Y659130D02*
D03*
X597520D02*
D03*
X610250Y681990D02*
D03*
X596250D02*
D03*
X535290Y560070D02*
D03*
X549290D02*
D03*
X511160Y640080D02*
D03*
X525160D02*
D03*
X732170Y298450D02*
D03*
X718170D02*
D03*
X695340Y500380D02*
D03*
X681340D02*
D03*
D44*
X698620Y468630D02*
D03*
X713620D02*
D03*
X699890Y483870D02*
D03*
X714890D02*
D03*
D47*
X528320Y388000D02*
D03*
Y374000D02*
D03*
X746760Y493380D02*
D03*
Y507380D02*
D03*
X660400Y536560D02*
D03*
Y550560D02*
D03*
X744220Y626760D02*
D03*
Y612760D02*
D03*
X635000Y367680D02*
D03*
Y353680D02*
D03*
X830580Y671210D02*
D03*
Y657210D02*
D03*
X728980Y612760D02*
D03*
Y626760D02*
D03*
D58*
X707390Y654230D02*
D03*
X716890Y676730D02*
D03*
X697890D02*
D03*
X645183Y652960D02*
D03*
X654683Y675460D02*
D03*
X635683D02*
D03*
D62*
X514350Y620640D02*
D03*
X539350D02*
D03*
X564350D02*
D03*
X589350D02*
D03*
X614350D02*
D03*
X639350D02*
D03*
X783590Y673100D02*
D03*
Y648500D02*
D03*
X855390Y673100D02*
D03*
Y648100D02*
D03*
D64*
X666750Y329860D02*
D03*
X659000D02*
D03*
X674500D02*
D03*
X666750Y340360D02*
D03*
X659000D02*
D03*
X674500D02*
D03*
X666750Y322360D02*
D03*
Y347860D02*
D03*
D65*
X814070Y370840D02*
D03*
X408940Y600710D02*
D03*
Y575310D02*
D03*
Y549910D02*
D03*
Y524510D02*
D03*
D66*
X814070Y396240D02*
D03*
X408940Y626110D02*
D03*
D67*
X514350Y548640D02*
D03*
X639350Y549640D02*
D03*
D68*
X358140Y503520D02*
D03*
D69*
Y490520D02*
D03*
Y477520D02*
D03*
D70*
X551180Y515620D02*
D03*
X855980Y541940D02*
D03*
X861060Y511810D02*
D03*
X435610Y525780D02*
D03*
X599320Y561340D02*
D03*
X581660Y544830D02*
D03*
X641350Y523240D02*
D03*
X326390Y403830D02*
D03*
X458350Y541020D02*
D03*
X563880Y297180D02*
D03*
X739140Y314960D02*
D03*
X563880Y637540D02*
D03*
X512280Y654050D02*
D03*
X816610Y650240D02*
D03*
X582530Y660400D02*
D03*
X580390Y683260D02*
D03*
X631190Y256540D02*
D03*
X707300Y628650D02*
D03*
X712470Y613410D02*
D03*
X765810Y511810D02*
D03*
X543560Y337820D02*
D03*
X598170Y347980D02*
D03*
X339090Y542290D02*
D03*
X358140Y543560D02*
D03*
X513080Y387350D02*
D03*
X525780Y360680D02*
D03*
X668020Y524185D02*
D03*
X676910Y549910D02*
D03*
X712470Y501650D02*
D03*
X688340Y518160D02*
D03*
X746760Y521970D02*
D03*
X430530Y477520D02*
D03*
X473710Y473090D02*
D03*
X408940Y478790D02*
D03*
X852820Y585470D02*
D03*
X627380Y685800D02*
D03*
X598170Y641350D02*
D03*
X809790Y672630D02*
D03*
X690880Y368300D02*
D03*
X661670Y393700D02*
D03*
X652780Y369570D02*
D03*
X679450Y381000D02*
D03*
X336550Y488950D02*
D03*
X716280Y425450D02*
D03*
X567690Y594360D02*
D03*
X563880Y574040D02*
D03*
X732790Y647700D02*
D03*
X762000Y598170D02*
D03*
X535940Y651510D02*
D03*
X472440Y603250D02*
D03*
X387350Y524510D02*
D03*
Y549910D02*
D03*
X443230Y290830D02*
D03*
X372110D02*
D03*
X523240Y222250D02*
D03*
X674370Y280670D02*
D03*
X666750Y298450D02*
D03*
X579120Y373027D02*
D03*
X548640Y368300D02*
D03*
X573182Y349662D02*
D03*
X537210Y306070D02*
D03*
X502920Y276860D02*
D03*
X801370Y293370D02*
D03*
X703580Y353060D02*
D03*
X591820Y435610D02*
D03*
X718020Y315430D02*
D03*
X698477Y408918D02*
D03*
X717550Y276860D02*
D03*
X727710Y260350D02*
D03*
X494030Y458470D02*
D03*
X633730Y582930D02*
D03*
X595630Y463550D02*
D03*
X612140Y430530D02*
D03*
X763270Y621030D02*
D03*
X490220Y425450D02*
D03*
Y358140D02*
D03*
X491490Y626110D02*
D03*
X518160Y508000D02*
D03*
X429260Y417830D02*
D03*
X367030Y402590D02*
D03*
X514350Y459740D02*
D03*
X494030Y477520D02*
D03*
X417830Y436880D02*
D03*
X393670Y504160D02*
D03*
X633730Y429260D02*
D03*
X544830Y393700D02*
D03*
X619760Y285750D02*
D03*
X539750Y283210D02*
D03*
D99*
X735420Y225850D02*
D03*
X690420D02*
D03*
X670420D02*
D03*
X650420D02*
D03*
X630420D02*
D03*
X730420D02*
D03*
X710420D02*
D03*
X540420D02*
D03*
X545420D02*
D03*
X550420D02*
D03*
X555420D02*
D03*
X560420D02*
D03*
X565420D02*
D03*
X570420D02*
D03*
X575420D02*
D03*
X580420D02*
D03*
X585420D02*
D03*
X590420D02*
D03*
X595420D02*
D03*
X600420D02*
D03*
X605420D02*
D03*
X610420D02*
D03*
X615420D02*
D03*
X620420D02*
D03*
X625420D02*
D03*
X635420D02*
D03*
X640420D02*
D03*
X645420D02*
D03*
X655420D02*
D03*
X660420D02*
D03*
X665420D02*
D03*
X675420D02*
D03*
X680420D02*
D03*
X685420D02*
D03*
X695420D02*
D03*
X700420D02*
D03*
X705420D02*
D03*
X715420D02*
D03*
X720420D02*
D03*
X725420D02*
D03*
D100*
X751420Y247850D02*
D03*
X524420Y248850D02*
D03*
D101*
X702310Y287330D02*
D03*
Y309330D02*
D03*
D102*
X779270Y470088D02*
D03*
Y415088D02*
D03*
X747270D02*
D03*
Y470088D02*
D03*
D103*
X645134Y504540D02*
D03*
X640134D02*
D03*
X635134D02*
D03*
X630134D02*
D03*
X625134D02*
D03*
X620134D02*
D03*
X615134D02*
D03*
X610134D02*
D03*
X605134D02*
D03*
X600134D02*
D03*
X595134D02*
D03*
X590134D02*
D03*
X585134D02*
D03*
X580134D02*
D03*
X575134D02*
D03*
X570134D02*
D03*
Y389540D02*
D03*
X575134D02*
D03*
X580134D02*
D03*
X585134D02*
D03*
X590134D02*
D03*
X595134D02*
D03*
X600134D02*
D03*
X605134D02*
D03*
X610134D02*
D03*
X615134D02*
D03*
X620134D02*
D03*
X625134D02*
D03*
X630134D02*
D03*
X635134D02*
D03*
X640134D02*
D03*
X645134D02*
D03*
D104*
X550134Y484540D02*
D03*
Y479540D02*
D03*
Y474540D02*
D03*
Y469540D02*
D03*
Y464540D02*
D03*
Y459540D02*
D03*
Y454540D02*
D03*
Y449540D02*
D03*
Y444540D02*
D03*
Y439540D02*
D03*
Y434540D02*
D03*
Y429540D02*
D03*
Y424540D02*
D03*
Y419540D02*
D03*
Y414540D02*
D03*
Y409540D02*
D03*
X665134D02*
D03*
Y414540D02*
D03*
Y419540D02*
D03*
Y424540D02*
D03*
Y429540D02*
D03*
Y434540D02*
D03*
Y439540D02*
D03*
Y444540D02*
D03*
Y449540D02*
D03*
Y454540D02*
D03*
Y459540D02*
D03*
Y464540D02*
D03*
Y469540D02*
D03*
Y474540D02*
D03*
Y479540D02*
D03*
Y484540D02*
D03*
D105*
X520240Y590550D02*
D03*
X589740D02*
D03*
M02*
