G04*
G04 #@! TF.GenerationSoftware,Altium Limited,Altium Designer,18.0.12 (696)*
G04*
G04 Layer_Color=65535*
%FSLAX44Y44*%
%MOMM*%
G71*
G01*
G75*
%ADD10C,0.1000*%
%ADD11C,0.0000*%
%ADD12C,0.2500*%
%ADD13C,0.2000*%
%ADD14C,0.1524*%
%ADD15C,0.1270*%
%ADD16C,0.2540*%
G36*
X526406Y290110D02*
X512772D01*
Y312896D01*
X526406D01*
Y290110D01*
D02*
G37*
G36*
X567582Y311964D02*
Y325598D01*
X590368D01*
Y311964D01*
X567582D01*
D02*
G37*
G36*
X655583Y480184D02*
Y466550D01*
X632797D01*
Y480184D01*
X655583D01*
D02*
G37*
D10*
X659750Y364110D02*
G03*
X659750Y364110I-500J0D01*
G01*
X648750Y356110D02*
Y358110D01*
X655750D01*
X677750D02*
X684750D01*
Y356110D02*
Y358110D01*
X648750Y312110D02*
Y314110D01*
Y312110D02*
X655750D01*
X677750D02*
X684750D01*
Y314110D01*
D11*
X690298Y672590D02*
G03*
X690298Y672590I-1270J0D01*
G01*
D12*
X489150Y643710D02*
G03*
X489150Y643710I-1250J0D01*
G01*
D13*
X554130Y488950D02*
G03*
X554130Y488950I-1000J0D01*
G01*
X479100Y569620D02*
Y573620D01*
X486100Y569620D02*
Y573620D01*
X496260Y497110D02*
Y501110D01*
X489260Y497110D02*
Y501110D01*
X481020Y497110D02*
Y501110D01*
X474020Y497110D02*
Y501110D01*
X553110Y414980D02*
X557110D01*
X553110Y407980D02*
X557110D01*
X745180Y238100D02*
Y242100D01*
X738180Y238100D02*
Y242100D01*
X635540Y400438D02*
X639540D01*
X635540Y393437D02*
X639540D01*
X826770Y358140D02*
Y408940D01*
X801370D02*
X826770D01*
X801370Y358140D02*
Y408940D01*
Y358140D02*
X826770D01*
X454900Y625460D02*
X462900D01*
X454900D02*
Y634460D01*
X476900Y625460D02*
X484900D01*
Y634460D01*
X442920Y594900D02*
Y598900D01*
X435920Y594900D02*
Y598900D01*
X442920Y627920D02*
Y631920D01*
X435920Y627920D02*
Y631920D01*
X396240Y511810D02*
X421640D01*
X396240D02*
Y638810D01*
X421640Y511810D02*
Y638810D01*
X396240D02*
X421640D01*
X552990Y422523D02*
X556990D01*
X552990Y429523D02*
X556990D01*
X635540Y414980D02*
X639540D01*
X635540Y407980D02*
X639540D01*
X707080Y239250D02*
Y243250D01*
X700080Y239250D02*
Y243250D01*
X726980Y297490D02*
X730980D01*
X726980Y304490D02*
X730980D01*
X716590Y239250D02*
Y243250D01*
X723590Y239250D02*
Y243250D01*
D14*
X812485Y558703D02*
X816803D01*
X841694Y525176D02*
X846012D01*
Y558703D01*
X841694D02*
X846012D01*
X812485Y525176D02*
Y558703D01*
Y525176D02*
X816803D01*
D15*
X747527Y620090D02*
Y660090D01*
X686028Y584090D02*
X730027D01*
X668528Y620090D02*
Y660090D01*
X689028D01*
X727028D02*
X747527D01*
X571820Y444900D02*
X611820D01*
X571820Y494900D02*
X611820D01*
X639582Y450050D02*
Y477050D01*
X655583Y450050D02*
Y477050D01*
D16*
X339979Y251841D02*
Y267076D01*
X347597D01*
X350136Y264537D01*
Y259459D01*
X347597Y256919D01*
X339979D01*
X345057D02*
X350136Y251841D01*
X365371Y267076D02*
X355214D01*
Y251841D01*
X365371D01*
X355214Y259459D02*
X360292D01*
X380606Y267076D02*
X370449D01*
Y259459D01*
X375527D01*
X370449D01*
Y251841D01*
X395841D02*
X385684D01*
X395841Y261998D01*
Y264537D01*
X393302Y267076D01*
X388223D01*
X385684Y264537D01*
X397129Y688721D02*
Y703956D01*
X404747D01*
X407286Y701417D01*
Y696339D01*
X404747Y693799D01*
X397129D01*
X402207D02*
X407286Y688721D01*
X422521Y703956D02*
X412364D01*
Y688721D01*
X422521D01*
X412364Y696339D02*
X417442D01*
X437756Y703956D02*
X427599D01*
Y696339D01*
X432677D01*
X427599D01*
Y688721D01*
X442834D02*
X447913D01*
X445373D01*
Y703956D01*
X442834Y701417D01*
X499110Y582930D02*
X509107D01*
Y577932D01*
X507441Y576265D01*
X504108D01*
X502442Y577932D01*
Y582930D01*
Y579598D02*
X499110Y576265D01*
Y572933D02*
Y569601D01*
Y571267D01*
X509107D01*
X507441Y572933D01*
X499110Y557938D02*
Y564603D01*
X505774Y557938D01*
X507441D01*
X509107Y559604D01*
Y562936D01*
X507441Y564603D01*
X720090Y552287D02*
X723422D01*
X721756D01*
Y542290D01*
X720090D01*
X723422D01*
X728421D02*
Y548955D01*
X733419D01*
X735085Y547288D01*
Y542290D01*
X745082Y552287D02*
Y542290D01*
X740084D01*
X738417Y543956D01*
Y547288D01*
X740084Y548955D01*
X745082D01*
X389890Y429260D02*
Y439257D01*
X394888D01*
X396554Y437591D01*
Y434258D01*
X394888Y432592D01*
X389890D01*
X393222D02*
X396554Y429260D01*
X401553Y435924D02*
X404885D01*
X406551Y434258D01*
Y429260D01*
X401553D01*
X399887Y430926D01*
X401553Y432592D01*
X406551D01*
X416548Y439257D02*
Y429260D01*
X411550D01*
X409884Y430926D01*
Y434258D01*
X411550Y435924D01*
X416548D01*
X419880Y429260D02*
X423213D01*
X421547D01*
Y435924D01*
X419880D01*
X429877Y429260D02*
X433209D01*
X434875Y430926D01*
Y434258D01*
X433209Y435924D01*
X429877D01*
X428211Y434258D01*
Y430926D01*
X429877Y429260D01*
X500380Y518160D02*
X490383D01*
Y523158D01*
X492049Y524824D01*
X495382D01*
X497048Y523158D01*
Y518160D01*
Y521492D02*
X500380Y524824D01*
X490383Y528157D02*
Y534821D01*
X492049D01*
X498714Y528157D01*
X500380D01*
X410524Y509981D02*
X408858Y511647D01*
X405526D01*
X403860Y509981D01*
Y503316D01*
X405526Y501650D01*
X408858D01*
X410524Y503316D01*
X413857Y509981D02*
X415523Y511647D01*
X418855D01*
X420521Y509981D01*
Y508315D01*
X418855Y506648D01*
X417189D01*
X418855D01*
X420521Y504982D01*
Y503316D01*
X418855Y501650D01*
X415523D01*
X413857Y503316D01*
X430518Y511647D02*
X427186Y509981D01*
X423854Y506648D01*
Y503316D01*
X425520Y501650D01*
X428852D01*
X430518Y503316D01*
Y504982D01*
X428852Y506648D01*
X423854D01*
X531175Y607771D02*
X529508Y609437D01*
X526176D01*
X524510Y607771D01*
Y601106D01*
X526176Y599440D01*
X529508D01*
X531175Y601106D01*
X536173Y599440D02*
X539505D01*
X541171Y601106D01*
Y604438D01*
X539505Y606105D01*
X536173D01*
X534507Y604438D01*
Y601106D01*
X536173Y599440D01*
X544504D02*
Y606105D01*
X549502D01*
X551168Y604438D01*
Y599440D01*
X554500D02*
Y606105D01*
X559499D01*
X561165Y604438D01*
Y599440D01*
X569496D02*
X566163D01*
X564497Y601106D01*
Y604438D01*
X566163Y606105D01*
X569496D01*
X571162Y604438D01*
Y602772D01*
X564497D01*
X581158Y606105D02*
X576160D01*
X574494Y604438D01*
Y601106D01*
X576160Y599440D01*
X581158D01*
X586157Y607771D02*
Y606105D01*
X584491D01*
X587823D01*
X586157D01*
Y601106D01*
X587823Y599440D01*
X594487D02*
X597820D01*
X599486Y601106D01*
Y604438D01*
X597820Y606105D01*
X594487D01*
X592821Y604438D01*
Y601106D01*
X594487Y599440D01*
X602818Y606105D02*
Y599440D01*
Y602772D01*
X604484Y604438D01*
X606150Y606105D01*
X607817D01*
X370840Y622300D02*
Y632297D01*
X375838D01*
X377505Y630631D01*
Y627298D01*
X375838Y625632D01*
X370840D01*
X387501Y622300D02*
X380837D01*
X387501Y628965D01*
Y630631D01*
X385835Y632297D01*
X382503D01*
X380837Y630631D01*
X627380Y373217D02*
Y363220D01*
X632378D01*
X634044Y364886D01*
Y366552D01*
Y368218D01*
X632378Y369884D01*
X627380D01*
X644041Y359888D02*
Y369884D01*
X639043D01*
X637377Y368218D01*
Y364886D01*
X639043Y363220D01*
X644041D01*
X654038Y373217D02*
X647374D01*
Y368218D01*
X650706Y369884D01*
X652372D01*
X654038Y368218D01*
Y364886D01*
X652372Y363220D01*
X649040D01*
X647374Y364886D01*
X657370Y363220D02*
X660703D01*
X659036D01*
Y373217D01*
X657370Y371551D01*
X665701D02*
X667367Y373217D01*
X670699D01*
X672365Y371551D01*
Y364886D01*
X670699Y363220D01*
X667367D01*
X665701Y364886D01*
Y371551D01*
X675698Y363220D02*
X679030D01*
X677364D01*
Y373217D01*
X675698Y371551D01*
X684028D02*
X685695Y373217D01*
X689027D01*
X690693Y371551D01*
Y369884D01*
X689027Y368218D01*
X687361D01*
X689027D01*
X690693Y366552D01*
Y364886D01*
X689027Y363220D01*
X685695D01*
X684028Y364886D01*
X694025Y373217D02*
Y363220D01*
X699024D01*
X700690Y364886D01*
Y366552D01*
X699024Y368218D01*
X694025D01*
X699024D01*
X700690Y369884D01*
Y371551D01*
X699024Y373217D01*
X694025D01*
X791210Y548477D02*
Y540146D01*
X792876Y538480D01*
X796208D01*
X797875Y540146D01*
Y548477D01*
X807871Y538480D02*
X801207D01*
X807871Y545145D01*
Y546811D01*
X806205Y548477D01*
X802873D01*
X801207Y546811D01*
X504190Y281777D02*
Y271780D01*
X509188D01*
X510854Y273446D01*
Y280111D01*
X509188Y281777D01*
X504190D01*
X514187Y280111D02*
X515853Y281777D01*
X519185D01*
X520851Y280111D01*
Y278444D01*
X519185Y276778D01*
X517519D01*
X519185D01*
X520851Y275112D01*
Y273446D01*
X519185Y271780D01*
X515853D01*
X514187Y273446D01*
X543560Y332577D02*
Y322580D01*
X548558D01*
X550224Y324246D01*
Y330911D01*
X548558Y332577D01*
X543560D01*
X560221Y322580D02*
X553557D01*
X560221Y329244D01*
Y330911D01*
X558555Y332577D01*
X555223D01*
X553557Y330911D01*
X730961Y342585D02*
X732627Y344252D01*
Y347584D01*
X730961Y349250D01*
X724296D01*
X722630Y347584D01*
Y344252D01*
X724296Y342585D01*
X722630Y332589D02*
Y339253D01*
X729295Y332589D01*
X730961D01*
X732627Y334255D01*
Y337587D01*
X730961Y339253D01*
Y329256D02*
X732627Y327590D01*
Y324258D01*
X730961Y322592D01*
X729295D01*
X727628Y324258D01*
Y325924D01*
Y324258D01*
X725962Y322592D01*
X724296D01*
X722630Y324258D01*
Y327590D01*
X724296Y329256D01*
X678739Y216215D02*
X677073Y214548D01*
Y211216D01*
X678739Y209550D01*
X685404D01*
X687070Y211216D01*
Y214548D01*
X685404Y216215D01*
X687070Y219547D02*
Y222879D01*
Y221213D01*
X677073D01*
X678739Y219547D01*
X677073Y227877D02*
Y234542D01*
X678739D01*
X685404Y227877D01*
X687070D01*
X750011Y342585D02*
X751677Y344252D01*
Y347584D01*
X750011Y349250D01*
X743346D01*
X741680Y347584D01*
Y344252D01*
X743346Y342585D01*
X741680Y332589D02*
Y339253D01*
X748344Y332589D01*
X750011D01*
X751677Y334255D01*
Y337587D01*
X750011Y339253D01*
X751677Y322592D02*
Y329256D01*
X746678D01*
X748344Y325924D01*
Y324258D01*
X746678Y322592D01*
X743346D01*
X741680Y324258D01*
Y327590D01*
X743346Y329256D01*
X712785Y412191D02*
X711118Y413857D01*
X707786D01*
X706120Y412191D01*
Y405526D01*
X707786Y403860D01*
X711118D01*
X712785Y405526D01*
X722781Y403860D02*
X716117D01*
X722781Y410524D01*
Y412191D01*
X721115Y413857D01*
X717783D01*
X716117Y412191D01*
X726114Y403860D02*
X729446D01*
X727780D01*
Y413857D01*
X726114Y412191D01*
X459740Y334010D02*
Y344007D01*
X464738D01*
X466404Y342341D01*
Y339008D01*
X464738Y337342D01*
X459740D01*
X469737Y334010D02*
X473069D01*
X471403D01*
Y344007D01*
X469737Y342341D01*
X478067D02*
X479734Y344007D01*
X483066D01*
X484732Y342341D01*
Y335676D01*
X483066Y334010D01*
X479734D01*
X478067Y335676D01*
Y342341D01*
X488064D02*
X489730Y344007D01*
X493063D01*
X494729Y342341D01*
Y335676D01*
X493063Y334010D01*
X489730D01*
X488064Y335676D01*
Y342341D01*
X411795Y492201D02*
X410128Y493867D01*
X406796D01*
X405130Y492201D01*
Y485536D01*
X406796Y483870D01*
X410128D01*
X411795Y485536D01*
X421791Y483870D02*
X415127D01*
X421791Y490535D01*
Y492201D01*
X420125Y493867D01*
X416793D01*
X415127Y492201D01*
X425124Y485536D02*
X426790Y483870D01*
X430122D01*
X431788Y485536D01*
Y492201D01*
X430122Y493867D01*
X426790D01*
X425124Y492201D01*
Y490535D01*
X426790Y488868D01*
X431788D01*
X665480Y636270D02*
Y646267D01*
X670478D01*
X672144Y644601D01*
Y641268D01*
X670478Y639602D01*
X665480D01*
X675477Y644601D02*
X677143Y646267D01*
X680475D01*
X682141Y644601D01*
Y642934D01*
X680475Y641268D01*
X678809D01*
X680475D01*
X682141Y639602D01*
Y637936D01*
X680475Y636270D01*
X677143D01*
X675477Y637936D01*
X723900Y256540D02*
X713903D01*
Y261538D01*
X715569Y263204D01*
X718902D01*
X720568Y261538D01*
Y256540D01*
Y259872D02*
X723900Y263204D01*
Y273201D02*
Y266537D01*
X717235Y273201D01*
X715569D01*
X713903Y271535D01*
Y268203D01*
X715569Y266537D01*
Y276534D02*
X713903Y278200D01*
Y281532D01*
X715569Y283198D01*
X722234D01*
X723900Y281532D01*
Y278200D01*
X722234Y276534D01*
X715569D01*
X652780Y408940D02*
Y418937D01*
X657778D01*
X659445Y417271D01*
Y413938D01*
X657778Y412272D01*
X652780D01*
X656112D02*
X659445Y408940D01*
X662777D02*
X666109D01*
X664443D01*
Y418937D01*
X662777Y417271D01*
X671107Y410606D02*
X672774Y408940D01*
X676106D01*
X677772Y410606D01*
Y417271D01*
X676106Y418937D01*
X672774D01*
X671107Y417271D01*
Y415605D01*
X672774Y413938D01*
X677772D01*
X753110Y236220D02*
Y246217D01*
X758108D01*
X759774Y244551D01*
Y241218D01*
X758108Y239552D01*
X753110D01*
X756442D02*
X759774Y236220D01*
X763107D02*
X766439D01*
X764773D01*
Y246217D01*
X763107Y244551D01*
X771437D02*
X773104Y246217D01*
X776436D01*
X778102Y244551D01*
Y242885D01*
X776436Y241218D01*
X778102Y239552D01*
Y237886D01*
X776436Y236220D01*
X773104D01*
X771437Y237886D01*
Y239552D01*
X773104Y241218D01*
X771437Y242885D01*
Y244551D01*
X773104Y241218D02*
X776436D01*
X516890Y405130D02*
Y415127D01*
X521888D01*
X523554Y413461D01*
Y410128D01*
X521888Y408462D01*
X516890D01*
X520222D02*
X523554Y405130D01*
X526887D02*
X530219D01*
X528553D01*
Y415127D01*
X526887Y413461D01*
X535217Y415127D02*
X541882D01*
Y413461D01*
X535217Y406796D01*
Y405130D01*
X707390Y257810D02*
X697393D01*
Y262808D01*
X699059Y264475D01*
X702392D01*
X704058Y262808D01*
Y257810D01*
Y261142D02*
X707390Y264475D01*
Y267807D02*
Y271139D01*
Y269473D01*
X697393D01*
X699059Y267807D01*
X697393Y282802D02*
X699059Y279470D01*
X702392Y276137D01*
X705724D01*
X707390Y277804D01*
Y281136D01*
X705724Y282802D01*
X704058D01*
X702392Y281136D01*
Y276137D01*
X516890Y422910D02*
Y432907D01*
X521888D01*
X523554Y431241D01*
Y427908D01*
X521888Y426242D01*
X516890D01*
X520222D02*
X523554Y422910D01*
X526887D02*
X530219D01*
X528553D01*
Y432907D01*
X526887Y431241D01*
X541882Y432907D02*
X535217D01*
Y427908D01*
X538550Y429575D01*
X540216D01*
X541882Y427908D01*
Y424576D01*
X540216Y422910D01*
X536884D01*
X535217Y424576D01*
X745490Y295910D02*
Y305907D01*
X750488D01*
X752154Y304241D01*
Y300908D01*
X750488Y299242D01*
X745490D01*
X748822D02*
X752154Y295910D01*
X755487D02*
X758819D01*
X757153D01*
Y305907D01*
X755487Y304241D01*
X768816Y295910D02*
Y305907D01*
X763817Y300908D01*
X770482D01*
X655320Y389890D02*
Y399887D01*
X660318D01*
X661984Y398221D01*
Y394888D01*
X660318Y393222D01*
X655320D01*
X658652D02*
X661984Y389890D01*
X665317D02*
X668649D01*
X666983D01*
Y399887D01*
X665317Y398221D01*
X673647D02*
X675314Y399887D01*
X678646D01*
X680312Y398221D01*
Y396554D01*
X678646Y394888D01*
X676980D01*
X678646D01*
X680312Y393222D01*
Y391556D01*
X678646Y389890D01*
X675314D01*
X673647Y391556D01*
X481330Y518040D02*
X471333D01*
Y523038D01*
X472999Y524705D01*
X476332D01*
X477998Y523038D01*
Y518040D01*
Y521372D02*
X481330Y524705D01*
X471333Y534701D02*
Y528037D01*
X476332D01*
X474665Y531369D01*
Y533035D01*
X476332Y534701D01*
X479664D01*
X481330Y533035D01*
Y529703D01*
X479664Y528037D01*
X448310Y591820D02*
Y601817D01*
X453308D01*
X454975Y600151D01*
Y596818D01*
X453308Y595152D01*
X448310D01*
X451642D02*
X454975Y591820D01*
X463305D02*
Y601817D01*
X458307Y596818D01*
X464971D01*
X427990Y647700D02*
Y657697D01*
X432988D01*
X434655Y656031D01*
Y652698D01*
X432988Y651032D01*
X427990D01*
X431322D02*
X434655Y647700D01*
X437987Y656031D02*
X439653Y657697D01*
X442985D01*
X444651Y656031D01*
Y654364D01*
X442985Y652698D01*
X441319D01*
X442985D01*
X444651Y651032D01*
Y649366D01*
X442985Y647700D01*
X439653D01*
X437987Y649366D01*
X467674Y658256D02*
Y664921D01*
X466008Y666587D01*
X462676D01*
X461010Y664921D01*
Y658256D01*
X462676Y656590D01*
X466008D01*
X464342Y659922D02*
X467674Y656590D01*
X466008D02*
X467674Y658256D01*
X477671Y656590D02*
X471007D01*
X477671Y663254D01*
Y664921D01*
X476005Y666587D01*
X472673D01*
X471007Y664921D01*
X833120Y375920D02*
Y385917D01*
X838118D01*
X839784Y384251D01*
Y380918D01*
X838118Y379252D01*
X833120D01*
X843117Y375920D02*
X846449D01*
X844783D01*
Y385917D01*
X843117Y384251D01*
X556260Y504190D02*
Y514187D01*
X559592Y510854D01*
X562924Y514187D01*
Y504190D01*
X571255Y514187D02*
X567923D01*
X566257Y512521D01*
Y505856D01*
X567923Y504190D01*
X571255D01*
X572921Y505856D01*
Y512521D01*
X571255Y514187D01*
X582918Y512521D02*
X581252Y514187D01*
X577920D01*
X576254Y512521D01*
Y510854D01*
X577920Y509188D01*
X581252D01*
X582918Y507522D01*
Y505856D01*
X581252Y504190D01*
X577920D01*
X576254Y505856D01*
X592915Y514187D02*
X586250D01*
Y509188D01*
X589583D01*
X586250D01*
Y504190D01*
X602912Y514187D02*
X596247D01*
Y504190D01*
X602912D01*
X596247Y509188D02*
X599579D01*
X606244Y514187D02*
X612908D01*
X609576D01*
Y504190D01*
X616241D02*
X619573D01*
X617907D01*
Y514187D01*
X616241Y512521D01*
X635000Y505297D02*
Y495300D01*
X639998D01*
X641665Y496966D01*
Y503631D01*
X639998Y505297D01*
X635000D01*
X644997Y495300D02*
X648329D01*
X646663D01*
Y501964D01*
X644997D01*
X654994Y495300D02*
X658326D01*
X659992Y496966D01*
Y500298D01*
X658326Y501964D01*
X654994D01*
X653327Y500298D01*
Y496966D01*
X654994Y495300D01*
X669989Y505297D02*
Y495300D01*
X664990D01*
X663324Y496966D01*
Y500298D01*
X664990Y501964D01*
X669989D01*
X678319Y495300D02*
X674987D01*
X673321Y496966D01*
Y500298D01*
X674987Y501964D01*
X678319D01*
X679986Y500298D01*
Y498632D01*
X673321D01*
X683318Y495300D02*
X686650D01*
X684984D01*
Y505297D01*
X683318Y503631D01*
X640395Y338531D02*
X638728Y340197D01*
X635396D01*
X633730Y338531D01*
Y331866D01*
X635396Y330200D01*
X638728D01*
X640395Y331866D01*
X650391Y330200D02*
X643727D01*
X650391Y336865D01*
Y338531D01*
X648725Y340197D01*
X645393D01*
X643727Y338531D01*
X660388Y340197D02*
X657056Y338531D01*
X653724Y335198D01*
Y331866D01*
X655390Y330200D01*
X658722D01*
X660388Y331866D01*
Y333532D01*
X658722Y335198D01*
X653724D01*
X766521Y340046D02*
X768187Y341712D01*
Y345044D01*
X766521Y346710D01*
X759856D01*
X758190Y345044D01*
Y341712D01*
X759856Y340046D01*
X758190Y330049D02*
Y336713D01*
X764855Y330049D01*
X766521D01*
X768187Y331715D01*
Y335047D01*
X766521Y336713D01*
X758190Y321718D02*
X768187D01*
X763188Y326716D01*
Y320052D01*
X618805Y250901D02*
X617138Y252567D01*
X613806D01*
X612140Y250901D01*
Y244236D01*
X613806Y242570D01*
X617138D01*
X618805Y244236D01*
X628801Y242570D02*
X622137D01*
X628801Y249235D01*
Y250901D01*
X627135Y252567D01*
X623803D01*
X622137Y250901D01*
X638798Y242570D02*
X632134D01*
X638798Y249235D01*
Y250901D01*
X637132Y252567D01*
X633800D01*
X632134Y250901D01*
X617534Y299161D02*
X615868Y300827D01*
X612536D01*
X610870Y299161D01*
Y292496D01*
X612536Y290830D01*
X615868D01*
X617534Y292496D01*
X627531Y290830D02*
X620867D01*
X627531Y297495D01*
Y299161D01*
X625865Y300827D01*
X622533D01*
X620867Y299161D01*
X630864D02*
X632530Y300827D01*
X635862D01*
X637528Y299161D01*
Y292496D01*
X635862Y290830D01*
X632530D01*
X630864Y292496D01*
Y299161D01*
X645719Y216215D02*
X644053Y214548D01*
Y211216D01*
X645719Y209550D01*
X652384D01*
X654050Y211216D01*
Y214548D01*
X652384Y216215D01*
X654050Y219547D02*
Y222879D01*
Y221213D01*
X644053D01*
X645719Y219547D01*
X652384Y227877D02*
X654050Y229544D01*
Y232876D01*
X652384Y234542D01*
X645719D01*
X644053Y232876D01*
Y229544D01*
X645719Y227877D01*
X647385D01*
X649052Y229544D01*
Y234542D01*
X663499Y216215D02*
X661833Y214548D01*
Y211216D01*
X663499Y209550D01*
X670164D01*
X671830Y211216D01*
Y214548D01*
X670164Y216215D01*
X671830Y219547D02*
Y222879D01*
Y221213D01*
X661833D01*
X663499Y219547D01*
Y227877D02*
X661833Y229544D01*
Y232876D01*
X663499Y234542D01*
X665165D01*
X666832Y232876D01*
X668498Y234542D01*
X670164D01*
X671830Y232876D01*
Y229544D01*
X670164Y227877D01*
X668498D01*
X666832Y229544D01*
X665165Y227877D01*
X663499D01*
X666832Y229544D02*
Y232876D01*
X579435Y362661D02*
X577768Y364327D01*
X574436D01*
X572770Y362661D01*
Y355996D01*
X574436Y354330D01*
X577768D01*
X579435Y355996D01*
X582767Y354330D02*
X586099D01*
X584433D01*
Y364327D01*
X582767Y362661D01*
X597762Y364327D02*
X594430Y362661D01*
X591097Y359328D01*
Y355996D01*
X592764Y354330D01*
X596096D01*
X597762Y355996D01*
Y357662D01*
X596096Y359328D01*
X591097D01*
X618805Y268681D02*
X617138Y270347D01*
X613806D01*
X612140Y268681D01*
Y262016D01*
X613806Y260350D01*
X617138D01*
X618805Y262016D01*
X622137Y260350D02*
X625469D01*
X623803D01*
Y270347D01*
X622137Y268681D01*
X637132Y270347D02*
X630467D01*
Y265348D01*
X633800Y267015D01*
X635466D01*
X637132Y265348D01*
Y262016D01*
X635466Y260350D01*
X632134D01*
X630467Y262016D01*
X640395Y315671D02*
X638728Y317337D01*
X635396D01*
X633730Y315671D01*
Y309006D01*
X635396Y307340D01*
X638728D01*
X640395Y309006D01*
X643727Y307340D02*
X647059D01*
X645393D01*
Y317337D01*
X643727Y315671D01*
X657056Y307340D02*
Y317337D01*
X652057Y312338D01*
X658722D01*
X618805Y282651D02*
X617138Y284317D01*
X613806D01*
X612140Y282651D01*
Y275986D01*
X613806Y274320D01*
X617138D01*
X618805Y275986D01*
X622137Y274320D02*
X625469D01*
X623803D01*
Y284317D01*
X622137Y282651D01*
X630467D02*
X632134Y284317D01*
X635466D01*
X637132Y282651D01*
Y280984D01*
X635466Y279318D01*
X633800D01*
X635466D01*
X637132Y277652D01*
Y275986D01*
X635466Y274320D01*
X632134D01*
X630467Y275986D01*
X868995Y581101D02*
X867328Y582767D01*
X863996D01*
X862330Y581101D01*
Y574436D01*
X863996Y572770D01*
X867328D01*
X868995Y574436D01*
X878991Y582767D02*
X875659Y581101D01*
X872327Y577768D01*
Y574436D01*
X873993Y572770D01*
X877325D01*
X878991Y574436D01*
Y576102D01*
X877325Y577768D01*
X872327D01*
X838514Y498551D02*
X836848Y500217D01*
X833516D01*
X831850Y498551D01*
Y491886D01*
X833516Y490220D01*
X836848D01*
X838514Y491886D01*
X848511Y500217D02*
X841847D01*
Y495218D01*
X845179Y496884D01*
X846845D01*
X848511Y495218D01*
Y491886D01*
X846845Y490220D01*
X843513D01*
X841847Y491886D01*
X601025Y427990D02*
X594360D01*
X601025Y434655D01*
Y436321D01*
X599358Y437987D01*
X596026D01*
X594360Y436321D01*
X764286Y704799D02*
X770950Y698134D01*
X764286D02*
X770950Y704799D01*
X764286Y701466D02*
X770950D01*
X767618Y698134D02*
Y704799D01*
X780947Y696468D02*
X774283D01*
X780947Y703132D01*
Y704799D01*
X779281Y706465D01*
X775949D01*
X774283Y704799D01*
M02*
