G04*
G04 #@! TF.GenerationSoftware,Altium Limited,Altium Designer,18.0.12 (696)*
G04*
G04 Layer_Color=2752767*
%FSLAX44Y44*%
%MOMM*%
G71*
G01*
G75*
%ADD108C,0.0508*%
%ADD109C,0.0677*%
D108*
X664718Y327828D02*
Y331892D01*
X668782D01*
Y327828D01*
X664718D01*
X656968D02*
Y331892D01*
X661032D01*
Y327828D01*
X656968D01*
X672468D02*
Y331892D01*
X676532D01*
Y327828D01*
X672468D01*
X664718Y338328D02*
Y342392D01*
X668782D01*
Y338328D01*
X664718D01*
X656968D02*
Y342392D01*
X661032D01*
Y338328D01*
X656968D01*
X672468D02*
Y342392D01*
X676532D01*
Y338328D01*
X672468D01*
X664718Y320328D02*
Y324392D01*
X668782D01*
Y320328D01*
X664718D01*
Y345828D02*
Y349892D01*
X668782D01*
Y345828D01*
X664718D01*
X514350Y546608D02*
X512318Y550672D01*
X516382D01*
X514350Y546608D01*
X639350Y547608D02*
X637318Y551672D01*
X641382D01*
X639350Y547608D01*
X514350Y618608D02*
X515366Y619624D01*
X516382D01*
X515366Y620640D01*
X516382Y621656D01*
X515366D01*
X514350Y622672D01*
X513334Y621656D01*
X512318D01*
X513334Y620640D01*
X512318Y619624D01*
X513334D01*
X514350Y618608D01*
X539350D02*
X540366Y619624D01*
X541382D01*
X540366Y620640D01*
X541382Y621656D01*
X540366D01*
X539350Y622672D01*
X538334Y621656D01*
X537318D01*
X538334Y620640D01*
X537318Y619624D01*
X538334D01*
X539350Y618608D01*
X564350D02*
X565366Y619624D01*
X566382D01*
X565366Y620640D01*
X566382Y621656D01*
X565366D01*
X564350Y622672D01*
X563334Y621656D01*
X562318D01*
X563334Y620640D01*
X562318Y619624D01*
X563334D01*
X564350Y618608D01*
X589350D02*
X590366Y619624D01*
X591382D01*
X590366Y620640D01*
X591382Y621656D01*
X590366D01*
X589350Y622672D01*
X588334Y621656D01*
X587318D01*
X588334Y620640D01*
X587318Y619624D01*
X588334D01*
X589350Y618608D01*
X614350D02*
X615366Y619624D01*
X616382D01*
X615366Y620640D01*
X616382Y621656D01*
X615366D01*
X614350Y622672D01*
X613334Y621656D01*
X612318D01*
X613334Y620640D01*
X612318Y619624D01*
X613334D01*
X614350Y618608D01*
X639350D02*
X640366Y619624D01*
X641382D01*
X640366Y620640D01*
X641382Y621656D01*
X640366D01*
X639350Y622672D01*
X638334Y621656D01*
X637318D01*
X638334Y620640D01*
X637318Y619624D01*
X638334D01*
X639350Y618608D01*
X783590Y671068D02*
X781558Y675132D01*
X785622D01*
X783590Y671068D01*
Y646468D02*
X781558Y650532D01*
X785622D01*
X783590Y646468D01*
X855390Y671068D02*
X856406Y672084D01*
X857422D01*
X856406Y673100D01*
X857422Y674116D01*
X856406D01*
X855390Y675132D01*
X854374Y674116D01*
X853358D01*
X854374Y673100D01*
X853358Y672084D01*
X854374D01*
X855390Y671068D01*
Y646068D02*
X856406Y647084D01*
X857422D01*
X856406Y648100D01*
X857422Y649116D01*
X856406D01*
X855390Y650132D01*
X854374Y649116D01*
X853358D01*
X854374Y648100D01*
X853358Y647084D01*
X854374D01*
X855390Y646068D01*
X356108Y501488D02*
X357124Y503520D01*
X356108Y505552D01*
X358140Y504536D01*
X360172Y505552D01*
X359156Y503520D01*
X360172Y501488D01*
X358140Y502504D01*
X356108Y501488D01*
Y488488D02*
X357124Y490520D01*
X356108Y492552D01*
X358140Y491536D01*
X360172Y492552D01*
X359156Y490520D01*
X360172Y488488D01*
X358140Y489504D01*
X356108Y488488D01*
Y475488D02*
X357124Y477520D01*
X356108Y479552D01*
X358140Y478536D01*
X360172Y479552D01*
X359156Y477520D01*
X360172Y475488D01*
X358140Y476504D01*
X356108Y475488D01*
X550164Y514604D02*
Y513588D01*
X552196D01*
Y514604D01*
X553212D01*
Y516636D01*
X552196D01*
Y517652D01*
X550164D01*
Y516636D01*
X549148D01*
Y514604D01*
X550164D01*
X854964Y540924D02*
Y539907D01*
X856996D01*
Y540924D01*
X858012D01*
Y542956D01*
X856996D01*
Y543971D01*
X854964D01*
Y542956D01*
X853948D01*
Y540924D01*
X854964D01*
X860044Y510794D02*
Y509778D01*
X862076D01*
Y510794D01*
X863092D01*
Y512826D01*
X862076D01*
Y513842D01*
X860044D01*
Y512826D01*
X859028D01*
Y510794D01*
X860044D01*
X434594Y524764D02*
Y523748D01*
X436626D01*
Y524764D01*
X437642D01*
Y526796D01*
X436626D01*
Y527812D01*
X434594D01*
Y526796D01*
X433578D01*
Y524764D01*
X434594D01*
X598304Y560324D02*
Y559308D01*
X600336D01*
Y560324D01*
X601352D01*
Y562356D01*
X600336D01*
Y563372D01*
X598304D01*
Y562356D01*
X597288D01*
Y560324D01*
X598304D01*
X580644Y543814D02*
Y542798D01*
X582676D01*
Y543814D01*
X583692D01*
Y545846D01*
X582676D01*
Y546862D01*
X580644D01*
Y545846D01*
X579628D01*
Y543814D01*
X580644D01*
X640334Y522224D02*
Y521208D01*
X642366D01*
Y522224D01*
X643382D01*
Y524256D01*
X642366D01*
Y525272D01*
X640334D01*
Y524256D01*
X639318D01*
Y522224D01*
X640334D01*
X325374Y402814D02*
Y401798D01*
X327406D01*
Y402814D01*
X328422D01*
Y404846D01*
X327406D01*
Y405862D01*
X325374D01*
Y404846D01*
X324358D01*
Y402814D01*
X325374D01*
X457334Y540004D02*
Y538988D01*
X459366D01*
Y540004D01*
X460382D01*
Y542036D01*
X459366D01*
Y543052D01*
X457334D01*
Y542036D01*
X456318D01*
Y540004D01*
X457334D01*
X562864Y296164D02*
Y295148D01*
X564896D01*
Y296164D01*
X565912D01*
Y298196D01*
X564896D01*
Y299212D01*
X562864D01*
Y298196D01*
X561848D01*
Y296164D01*
X562864D01*
X738124Y313944D02*
Y312928D01*
X740156D01*
Y313944D01*
X741172D01*
Y315976D01*
X740156D01*
Y316992D01*
X738124D01*
Y315976D01*
X737108D01*
Y313944D01*
X738124D01*
X562864Y636524D02*
Y635508D01*
X564896D01*
Y636524D01*
X565912D01*
Y638556D01*
X564896D01*
Y639572D01*
X562864D01*
Y638556D01*
X561848D01*
Y636524D01*
X562864D01*
X511264Y653034D02*
Y652018D01*
X513296D01*
Y653034D01*
X514312D01*
Y655066D01*
X513296D01*
Y656082D01*
X511264D01*
Y655066D01*
X510248D01*
Y653034D01*
X511264D01*
X815594Y649224D02*
Y648208D01*
X817626D01*
Y649224D01*
X818642D01*
Y651256D01*
X817626D01*
Y652272D01*
X815594D01*
Y651256D01*
X814578D01*
Y649224D01*
X815594D01*
X581514Y659384D02*
Y658368D01*
X583546D01*
Y659384D01*
X584562D01*
Y661416D01*
X583546D01*
Y662432D01*
X581514D01*
Y661416D01*
X580498D01*
Y659384D01*
X581514D01*
X579374Y682244D02*
Y681228D01*
X581406D01*
Y682244D01*
X582422D01*
Y684276D01*
X581406D01*
Y685292D01*
X579374D01*
Y684276D01*
X578358D01*
Y682244D01*
X579374D01*
X630174Y255524D02*
Y254508D01*
X632206D01*
Y255524D01*
X633222D01*
Y257556D01*
X632206D01*
Y258572D01*
X630174D01*
Y257556D01*
X629158D01*
Y255524D01*
X630174D01*
X706284Y627634D02*
Y626618D01*
X708316D01*
Y627634D01*
X709332D01*
Y629666D01*
X708316D01*
Y630682D01*
X706284D01*
Y629666D01*
X705268D01*
Y627634D01*
X706284D01*
X711454Y612394D02*
Y611378D01*
X713486D01*
Y612394D01*
X714502D01*
Y614426D01*
X713486D01*
Y615442D01*
X711454D01*
Y614426D01*
X710438D01*
Y612394D01*
X711454D01*
X764794Y510794D02*
Y509778D01*
X766826D01*
Y510794D01*
X767842D01*
Y512826D01*
X766826D01*
Y513842D01*
X764794D01*
Y512826D01*
X763778D01*
Y510794D01*
X764794D01*
X542544Y336804D02*
Y335788D01*
X544576D01*
Y336804D01*
X545592D01*
Y338836D01*
X544576D01*
Y339852D01*
X542544D01*
Y338836D01*
X541528D01*
Y336804D01*
X542544D01*
X597154Y346964D02*
Y345948D01*
X599186D01*
Y346964D01*
X600202D01*
Y348996D01*
X599186D01*
Y350012D01*
X597154D01*
Y348996D01*
X596138D01*
Y346964D01*
X597154D01*
X338074Y541274D02*
Y540258D01*
X340106D01*
Y541274D01*
X341122D01*
Y543306D01*
X340106D01*
Y544322D01*
X338074D01*
Y543306D01*
X337058D01*
Y541274D01*
X338074D01*
X357124Y542544D02*
Y541528D01*
X359156D01*
Y542544D01*
X360172D01*
Y544576D01*
X359156D01*
Y545592D01*
X357124D01*
Y544576D01*
X356108D01*
Y542544D01*
X357124D01*
X512064Y386334D02*
Y385318D01*
X514096D01*
Y386334D01*
X515112D01*
Y388366D01*
X514096D01*
Y389382D01*
X512064D01*
Y388366D01*
X511048D01*
Y386334D01*
X512064D01*
X524764Y359664D02*
Y358648D01*
X526796D01*
Y359664D01*
X527812D01*
Y361696D01*
X526796D01*
Y362712D01*
X524764D01*
Y361696D01*
X523748D01*
Y359664D01*
X524764D01*
X667004Y523169D02*
Y522153D01*
X669036D01*
Y523169D01*
X670052D01*
Y525201D01*
X669036D01*
Y526217D01*
X667004D01*
Y525201D01*
X665988D01*
Y523169D01*
X667004D01*
X675894Y548894D02*
Y547878D01*
X677926D01*
Y548894D01*
X678942D01*
Y550926D01*
X677926D01*
Y551942D01*
X675894D01*
Y550926D01*
X674878D01*
Y548894D01*
X675894D01*
X711454Y500634D02*
Y499618D01*
X713486D01*
Y500634D01*
X714502D01*
Y502666D01*
X713486D01*
Y503682D01*
X711454D01*
Y502666D01*
X710438D01*
Y500634D01*
X711454D01*
X687324Y517144D02*
Y516128D01*
X689356D01*
Y517144D01*
X690372D01*
Y519176D01*
X689356D01*
Y520192D01*
X687324D01*
Y519176D01*
X686308D01*
Y517144D01*
X687324D01*
X745744Y520954D02*
Y519938D01*
X747776D01*
Y520954D01*
X748792D01*
Y522986D01*
X747776D01*
Y524002D01*
X745744D01*
Y522986D01*
X744728D01*
Y520954D01*
X745744D01*
X429514Y476504D02*
Y475488D01*
X431546D01*
Y476504D01*
X432562D01*
Y478536D01*
X431546D01*
Y479552D01*
X429514D01*
Y478536D01*
X428498D01*
Y476504D01*
X429514D01*
X472694Y472074D02*
Y471058D01*
X474726D01*
Y472074D01*
X475742D01*
Y474106D01*
X474726D01*
Y475122D01*
X472694D01*
Y474106D01*
X471678D01*
Y472074D01*
X472694D01*
X407924Y477774D02*
Y476758D01*
X409956D01*
Y477774D01*
X410972D01*
Y479806D01*
X409956D01*
Y480822D01*
X407924D01*
Y479806D01*
X406908D01*
Y477774D01*
X407924D01*
X851804Y584454D02*
Y583438D01*
X853836D01*
Y584454D01*
X854852D01*
Y586486D01*
X853836D01*
Y587502D01*
X851804D01*
Y586486D01*
X850788D01*
Y584454D01*
X851804D01*
X626364Y684784D02*
Y683768D01*
X628396D01*
Y684784D01*
X629412D01*
Y686816D01*
X628396D01*
Y687832D01*
X626364D01*
Y686816D01*
X625348D01*
Y684784D01*
X626364D01*
X597154Y640334D02*
Y639318D01*
X599186D01*
Y640334D01*
X600202D01*
Y642366D01*
X599186D01*
Y643382D01*
X597154D01*
Y642366D01*
X596138D01*
Y640334D01*
X597154D01*
X808774Y671614D02*
Y670598D01*
X810806D01*
Y671614D01*
X811822D01*
Y673646D01*
X810806D01*
Y674662D01*
X808774D01*
Y673646D01*
X807758D01*
Y671614D01*
X808774D01*
X689864Y367284D02*
Y366268D01*
X691896D01*
Y367284D01*
X692912D01*
Y369316D01*
X691896D01*
Y370332D01*
X689864D01*
Y369316D01*
X688848D01*
Y367284D01*
X689864D01*
X660654Y392684D02*
Y391668D01*
X662686D01*
Y392684D01*
X663702D01*
Y394716D01*
X662686D01*
Y395732D01*
X660654D01*
Y394716D01*
X659638D01*
Y392684D01*
X660654D01*
X651764Y368554D02*
Y367538D01*
X653796D01*
Y368554D01*
X654812D01*
Y370586D01*
X653796D01*
Y371602D01*
X651764D01*
Y370586D01*
X650748D01*
Y368554D01*
X651764D01*
X678434Y379984D02*
Y378968D01*
X680466D01*
Y379984D01*
X681482D01*
Y382016D01*
X680466D01*
Y383032D01*
X678434D01*
Y382016D01*
X677418D01*
Y379984D01*
X678434D01*
X335534Y487934D02*
Y486918D01*
X337566D01*
Y487934D01*
X338582D01*
Y489966D01*
X337566D01*
Y490982D01*
X335534D01*
Y489966D01*
X334518D01*
Y487934D01*
X335534D01*
X715264Y424434D02*
Y423418D01*
X717296D01*
Y424434D01*
X718312D01*
Y426466D01*
X717296D01*
Y427482D01*
X715264D01*
Y426466D01*
X714248D01*
Y424434D01*
X715264D01*
X566674Y593344D02*
Y592328D01*
X568706D01*
Y593344D01*
X569722D01*
Y595376D01*
X568706D01*
Y596392D01*
X566674D01*
Y595376D01*
X565658D01*
Y593344D01*
X566674D01*
X562864Y573024D02*
Y572008D01*
X564896D01*
Y573024D01*
X565912D01*
Y575056D01*
X564896D01*
Y576072D01*
X562864D01*
Y575056D01*
X561848D01*
Y573024D01*
X562864D01*
X731774Y646684D02*
Y645668D01*
X733806D01*
Y646684D01*
X734822D01*
Y648716D01*
X733806D01*
Y649732D01*
X731774D01*
Y648716D01*
X730758D01*
Y646684D01*
X731774D01*
X760984Y597154D02*
Y596138D01*
X763016D01*
Y597154D01*
X764032D01*
Y599186D01*
X763016D01*
Y600202D01*
X760984D01*
Y599186D01*
X759968D01*
Y597154D01*
X760984D01*
X534924Y650494D02*
Y649478D01*
X536956D01*
Y650494D01*
X537972D01*
Y652526D01*
X536956D01*
Y653542D01*
X534924D01*
Y652526D01*
X533908D01*
Y650494D01*
X534924D01*
X471424Y602234D02*
Y601218D01*
X473456D01*
Y602234D01*
X474472D01*
Y604266D01*
X473456D01*
Y605282D01*
X471424D01*
Y604266D01*
X470408D01*
Y602234D01*
X471424D01*
X386334Y523494D02*
Y522478D01*
X388366D01*
Y523494D01*
X389382D01*
Y525526D01*
X388366D01*
Y526542D01*
X386334D01*
Y525526D01*
X385318D01*
Y523494D01*
X386334D01*
Y548894D02*
Y547878D01*
X388366D01*
Y548894D01*
X389382D01*
Y550926D01*
X388366D01*
Y551942D01*
X386334D01*
Y550926D01*
X385318D01*
Y548894D01*
X386334D01*
X442214Y289814D02*
Y288798D01*
X444246D01*
Y289814D01*
X445262D01*
Y291846D01*
X444246D01*
Y292862D01*
X442214D01*
Y291846D01*
X441198D01*
Y289814D01*
X442214D01*
X371094D02*
Y288798D01*
X373126D01*
Y289814D01*
X374142D01*
Y291846D01*
X373126D01*
Y292862D01*
X371094D01*
Y291846D01*
X370078D01*
Y289814D01*
X371094D01*
X522224Y221234D02*
Y220218D01*
X524256D01*
Y221234D01*
X525272D01*
Y223266D01*
X524256D01*
Y224282D01*
X522224D01*
Y223266D01*
X521208D01*
Y221234D01*
X522224D01*
X673354Y279654D02*
Y278638D01*
X675386D01*
Y279654D01*
X676402D01*
Y281686D01*
X675386D01*
Y282702D01*
X673354D01*
Y281686D01*
X672338D01*
Y279654D01*
X673354D01*
X665734Y297434D02*
Y296418D01*
X667766D01*
Y297434D01*
X668782D01*
Y299466D01*
X667766D01*
Y300482D01*
X665734D01*
Y299466D01*
X664718D01*
Y297434D01*
X665734D01*
X578104Y372011D02*
Y370995D01*
X580136D01*
Y372011D01*
X581152D01*
Y374043D01*
X580136D01*
Y375059D01*
X578104D01*
Y374043D01*
X577088D01*
Y372011D01*
X578104D01*
X547624Y367284D02*
Y366268D01*
X549656D01*
Y367284D01*
X550672D01*
Y369316D01*
X549656D01*
Y370332D01*
X547624D01*
Y369316D01*
X546608D01*
Y367284D01*
X547624D01*
X572166Y348646D02*
Y347630D01*
X574198D01*
Y348646D01*
X575214D01*
Y350678D01*
X574198D01*
Y351694D01*
X572166D01*
Y350678D01*
X571150D01*
Y348646D01*
X572166D01*
X536194Y305054D02*
Y304038D01*
X538226D01*
Y305054D01*
X539242D01*
Y307086D01*
X538226D01*
Y308102D01*
X536194D01*
Y307086D01*
X535178D01*
Y305054D01*
X536194D01*
X501904Y275844D02*
Y274828D01*
X503936D01*
Y275844D01*
X504952D01*
Y277876D01*
X503936D01*
Y278892D01*
X501904D01*
Y277876D01*
X500888D01*
Y275844D01*
X501904D01*
X800354Y292354D02*
Y291338D01*
X802386D01*
Y292354D01*
X803402D01*
Y294386D01*
X802386D01*
Y295402D01*
X800354D01*
Y294386D01*
X799338D01*
Y292354D01*
X800354D01*
X702564Y352044D02*
Y351028D01*
X704596D01*
Y352044D01*
X705612D01*
Y354076D01*
X704596D01*
Y355092D01*
X702564D01*
Y354076D01*
X701548D01*
Y352044D01*
X702564D01*
X590804Y434594D02*
Y433578D01*
X592836D01*
Y434594D01*
X593852D01*
Y436626D01*
X592836D01*
Y437642D01*
X590804D01*
Y436626D01*
X589788D01*
Y434594D01*
X590804D01*
X717004Y314414D02*
Y313398D01*
X719036D01*
Y314414D01*
X720052D01*
Y316446D01*
X719036D01*
Y317462D01*
X717004D01*
Y316446D01*
X715988D01*
Y314414D01*
X717004D01*
X697461Y407901D02*
Y406885D01*
X699493D01*
Y407901D01*
X700509D01*
Y409934D01*
X699493D01*
Y410950D01*
X697461D01*
Y409934D01*
X696445D01*
Y407901D01*
X697461D01*
X716534Y275844D02*
Y274828D01*
X718566D01*
Y275844D01*
X719582D01*
Y277876D01*
X718566D01*
Y278892D01*
X716534D01*
Y277876D01*
X715518D01*
Y275844D01*
X716534D01*
X726694Y259334D02*
Y258318D01*
X728726D01*
Y259334D01*
X729742D01*
Y261366D01*
X728726D01*
Y262382D01*
X726694D01*
Y261366D01*
X725678D01*
Y259334D01*
X726694D01*
X493014Y457454D02*
Y456438D01*
X495046D01*
Y457454D01*
X496062D01*
Y459486D01*
X495046D01*
Y460502D01*
X493014D01*
Y459486D01*
X491998D01*
Y457454D01*
X493014D01*
X632714Y581914D02*
Y580898D01*
X634746D01*
Y581914D01*
X635762D01*
Y583946D01*
X634746D01*
Y584962D01*
X632714D01*
Y583946D01*
X631698D01*
Y581914D01*
X632714D01*
X594614Y462534D02*
Y461518D01*
X596646D01*
Y462534D01*
X597662D01*
Y464566D01*
X596646D01*
Y465582D01*
X594614D01*
Y464566D01*
X593598D01*
Y462534D01*
X594614D01*
X611124Y429514D02*
Y428498D01*
X613156D01*
Y429514D01*
X614172D01*
Y431546D01*
X613156D01*
Y432562D01*
X611124D01*
Y431546D01*
X610108D01*
Y429514D01*
X611124D01*
X762254Y620014D02*
Y618998D01*
X764286D01*
Y620014D01*
X765302D01*
Y622046D01*
X764286D01*
Y623062D01*
X762254D01*
Y622046D01*
X761238D01*
Y620014D01*
X762254D01*
X489204Y424434D02*
Y423418D01*
X491236D01*
Y424434D01*
X492252D01*
Y426466D01*
X491236D01*
Y427482D01*
X489204D01*
Y426466D01*
X488188D01*
Y424434D01*
X489204D01*
Y357124D02*
Y356108D01*
X491236D01*
Y357124D01*
X492252D01*
Y359156D01*
X491236D01*
Y360172D01*
X489204D01*
Y359156D01*
X488188D01*
Y357124D01*
X489204D01*
X490474Y625094D02*
Y624078D01*
X492506D01*
Y625094D01*
X493522D01*
Y627126D01*
X492506D01*
Y628142D01*
X490474D01*
Y627126D01*
X489458D01*
Y625094D01*
X490474D01*
X517144Y506984D02*
Y505968D01*
X519176D01*
Y506984D01*
X520192D01*
Y509016D01*
X519176D01*
Y510032D01*
X517144D01*
Y509016D01*
X516128D01*
Y506984D01*
X517144D01*
X428244Y416814D02*
Y415798D01*
X430276D01*
Y416814D01*
X431292D01*
Y418846D01*
X430276D01*
Y419862D01*
X428244D01*
Y418846D01*
X427228D01*
Y416814D01*
X428244D01*
X366014Y401574D02*
Y400558D01*
X368046D01*
Y401574D01*
X369062D01*
Y403606D01*
X368046D01*
Y404622D01*
X366014D01*
Y403606D01*
X364998D01*
Y401574D01*
X366014D01*
X513334Y458724D02*
Y457708D01*
X515366D01*
Y458724D01*
X516382D01*
Y460756D01*
X515366D01*
Y461772D01*
X513334D01*
Y460756D01*
X512318D01*
Y458724D01*
X513334D01*
X493014Y476504D02*
Y475488D01*
X495046D01*
Y476504D01*
X496062D01*
Y478536D01*
X495046D01*
Y479552D01*
X493014D01*
Y478536D01*
X491998D01*
Y476504D01*
X493014D01*
X416814Y435864D02*
Y434848D01*
X418846D01*
Y435864D01*
X419862D01*
Y437896D01*
X418846D01*
Y438912D01*
X416814D01*
Y437896D01*
X415798D01*
Y435864D01*
X416814D01*
X392654Y503144D02*
Y502128D01*
X394686D01*
Y503144D01*
X395702D01*
Y505176D01*
X394686D01*
Y506192D01*
X392654D01*
Y505176D01*
X391638D01*
Y503144D01*
X392654D01*
X632714Y428244D02*
Y427228D01*
X634746D01*
Y428244D01*
X635762D01*
Y430276D01*
X634746D01*
Y431292D01*
X632714D01*
Y430276D01*
X631698D01*
Y428244D01*
X632714D01*
X543814Y392684D02*
Y391668D01*
X545846D01*
Y392684D01*
X546862D01*
Y394716D01*
X545846D01*
Y395732D01*
X543814D01*
Y394716D01*
X542798D01*
Y392684D01*
X543814D01*
X618744Y284734D02*
Y283718D01*
X620776D01*
Y284734D01*
X621792D01*
Y286766D01*
X620776D01*
Y287782D01*
X618744D01*
Y286766D01*
X617728D01*
Y284734D01*
X618744D01*
X538734Y282194D02*
Y281178D01*
X540766D01*
Y282194D01*
X541782D01*
Y284226D01*
X540766D01*
Y285242D01*
X538734D01*
Y284226D01*
X537718D01*
Y282194D01*
X538734D01*
D109*
X816102Y370840D02*
G03*
X816102Y370840I-2032J0D01*
G01*
Y396240D02*
G03*
X816102Y396240I-2032J0D01*
G01*
X410972Y626110D02*
G03*
X410972Y626110I-2032J0D01*
G01*
Y600710D02*
G03*
X410972Y600710I-2032J0D01*
G01*
Y575310D02*
G03*
X410972Y575310I-2032J0D01*
G01*
Y549910D02*
G03*
X410972Y549910I-2032J0D01*
G01*
Y524510D02*
G03*
X410972Y524510I-2032J0D01*
G01*
M02*
