G04*
G04 #@! TF.GenerationSoftware,Altium Limited,Altium Designer,18.0.12 (696)*
G04*
G04 Layer_Color=8421504*
%FSLAX44Y44*%
%MOMM*%
G71*
G01*
G75*
%ADD17R,0.9000X0.7000*%
%ADD18R,0.8000X0.9000*%
%ADD19O,0.8000X1.8000*%
%ADD20R,0.7000X0.9000*%
%ADD21R,1.2000X1.2000*%
%ADD22R,1.2000X1.2000*%
%ADD23R,0.9000X0.8000*%
%ADD24R,0.2400X0.6000*%
%ADD25R,0.6000X0.2400*%
%ADD26R,2.0500X3.0500*%
%ADD27R,0.7500X0.4000*%
%ADD28R,0.2000X0.5250*%
%ADD29R,0.3048X0.7874*%
%ADD30R,2.4892X1.7526*%
G04:AMPARAMS|DCode=31|XSize=1.5mm|YSize=1.4mm|CornerRadius=0mm|HoleSize=0mm|Usage=FLASHONLY|Rotation=45.000|XOffset=0mm|YOffset=0mm|HoleType=Round|Shape=Rectangle|*
%AMROTATEDRECTD31*
4,1,4,-0.0354,-1.0253,-1.0253,-0.0354,0.0354,1.0253,1.0253,0.0354,-0.0354,-1.0253,0.0*
%
%ADD31ROTATEDRECTD31*%

%ADD32R,1.5000X3.4000*%
%ADD33R,1.0000X3.5000*%
%ADD34R,0.6000X1.1500*%
%ADD35R,1.7500X0.5900*%
%ADD36R,0.8128X0.3048*%
%ADD37R,1.5748X2.3622*%
%ADD38C,1.5240*%
%ADD39R,1.2200X0.9100*%
G36*
X841694Y533176D02*
X816803D01*
Y550703D01*
X841694D01*
Y533176D01*
D02*
G37*
G36*
X670500Y351875D02*
X662997D01*
Y354360D01*
X670500D01*
Y351875D01*
D02*
G37*
G36*
X677000Y341510D02*
X667800D01*
Y350010D01*
X677000D01*
Y341510D01*
D02*
G37*
G36*
X665700D02*
X656500D01*
Y350010D01*
X665700D01*
Y341510D01*
D02*
G37*
G36*
X677000Y330860D02*
X667800D01*
Y339360D01*
X677000D01*
Y330860D01*
D02*
G37*
G36*
X665700D02*
X656500D01*
Y339360D01*
X665700D01*
Y330860D01*
D02*
G37*
G36*
X677000Y320210D02*
X667800D01*
Y328710D01*
X677000D01*
Y320210D01*
D02*
G37*
G36*
X665700D02*
X656500D01*
Y328710D01*
X665700D01*
Y320210D01*
D02*
G37*
G36*
X670500Y315848D02*
X662998D01*
Y318360D01*
X670500D01*
Y315848D01*
D02*
G37*
D17*
X482600Y564120D02*
D03*
Y579120D02*
D03*
X492760Y506610D02*
D03*
Y491610D02*
D03*
X477520Y506610D02*
D03*
Y491610D02*
D03*
X741680Y247600D02*
D03*
Y232600D02*
D03*
X439420Y604400D02*
D03*
Y589400D02*
D03*
Y637420D02*
D03*
Y622420D02*
D03*
X703580Y248750D02*
D03*
Y233750D02*
D03*
X720090Y233750D02*
D03*
Y248750D02*
D03*
D18*
X459120Y503493D02*
D03*
X445120D02*
D03*
X832470Y510540D02*
D03*
X846470D02*
D03*
X838820Y574040D02*
D03*
X852820D02*
D03*
X586090Y247650D02*
D03*
X600090D02*
D03*
X728360Y393700D02*
D03*
X714360D02*
D03*
X607680Y308037D02*
D03*
X621680D02*
D03*
X610220Y336550D02*
D03*
X624220D02*
D03*
X608950Y358140D02*
D03*
X622950D02*
D03*
X586090Y293370D02*
D03*
X600090D02*
D03*
X586963Y264160D02*
D03*
X600963D02*
D03*
X586090Y278703D02*
D03*
X600090D02*
D03*
X460390Y488950D02*
D03*
X446390D02*
D03*
D19*
X372110Y276860D02*
D03*
X443110D02*
D03*
X462710D02*
D03*
X381510Y455360D02*
D03*
X406810D02*
D03*
X419510D02*
D03*
X444910Y455460D02*
D03*
X394110Y455360D02*
D03*
X368110D02*
D03*
X457510Y455460D02*
D03*
X432310D02*
D03*
D20*
X547610Y411480D02*
D03*
X562610D02*
D03*
X630040Y396937D02*
D03*
X645040D02*
D03*
X562490Y426022D02*
D03*
X547490D02*
D03*
X630040Y411480D02*
D03*
X645040D02*
D03*
X736480Y300990D02*
D03*
X721480D02*
D03*
D21*
X502772Y295710D02*
D03*
X524510Y295910D02*
D03*
D22*
X573182Y335598D02*
D03*
X573382Y313860D02*
D03*
D23*
X651510Y261000D02*
D03*
Y247000D02*
D03*
X666750Y261000D02*
D03*
Y247000D02*
D03*
X681990D02*
D03*
Y261000D02*
D03*
X744220Y372760D02*
D03*
Y358760D02*
D03*
X759460Y371490D02*
D03*
Y357490D02*
D03*
X728980Y374030D02*
D03*
Y360030D02*
D03*
D24*
X659250Y356610D02*
D03*
X674250D02*
D03*
X659250Y313610D02*
D03*
X674250D02*
D03*
D25*
X650250Y337610D02*
D03*
Y332610D02*
D03*
Y327610D02*
D03*
Y322610D02*
D03*
Y317610D02*
D03*
Y342610D02*
D03*
X651750Y348110D02*
D03*
X650250Y352610D02*
D03*
X683250Y337610D02*
D03*
Y332610D02*
D03*
Y327610D02*
D03*
Y322610D02*
D03*
Y317610D02*
D03*
Y342610D02*
D03*
Y347610D02*
D03*
Y352610D02*
D03*
D26*
X666750Y335110D02*
D03*
D27*
Y352360D02*
D03*
Y317860D02*
D03*
D28*
X664000Y356985D02*
D03*
X669500D02*
D03*
Y313235D02*
D03*
X664000D02*
D03*
D29*
X821749Y527335D02*
D03*
X826749D02*
D03*
X831749D02*
D03*
X836749D02*
D03*
Y556544D02*
D03*
X831749D02*
D03*
X826749D02*
D03*
X821749D02*
D03*
D30*
X829249Y541940D02*
D03*
D31*
X785000Y529450D02*
D03*
X758130Y556320D02*
D03*
D32*
X674528Y599090D02*
D03*
X741527D02*
D03*
D33*
X698027Y656590D02*
D03*
X718027D02*
D03*
D34*
X469900Y621210D02*
D03*
X460400Y643710D02*
D03*
X479400D02*
D03*
D35*
X617670Y488950D02*
D03*
Y476250D02*
D03*
Y463550D02*
D03*
Y450850D02*
D03*
X565970D02*
D03*
Y463550D02*
D03*
Y476250D02*
D03*
Y488950D02*
D03*
D36*
X584200Y417576D02*
D03*
Y412750D02*
D03*
Y407670D02*
D03*
Y402590D02*
D03*
Y397764D02*
D03*
X612140D02*
D03*
Y402590D02*
D03*
Y407670D02*
D03*
Y412750D02*
D03*
Y417576D02*
D03*
D37*
X598170Y407670D02*
D03*
D38*
X508000Y348820D02*
D03*
Y326820D02*
D03*
D39*
X647582Y447200D02*
D03*
Y479900D02*
D03*
M02*
